<svg xmlns="http://www.w3.org/2000/svg" xmlns:xlink="http://www.w3.org/1999/xlink" width="120" zoomAndPan="magnify" viewBox="0 0 375 374.999991" height="120" preserveAspectRatio="xMidYMid meet" version="1.0"><defs><filter x="0%" y="0%" width="100%" height="100%" id="1e17159508"><feColorMatrix values="0 0 0 0 1 0 0 0 0 1 0 0 0 0 1 0 0 0 1 0" color-interpolation-filters="sRGB"/></filter><g/><clipPath id="b4ce11619e"><path d="M 134.367188 180.933594 L 139.226562 180.933594 L 139.226562 187.046875 L 134.367188 187.046875 Z M 134.367188 180.933594 " clip-rule="nonzero"/></clipPath><clipPath id="6f23f3ce19"><path d="M 138.898438 182.773438 C 139.050781 185.773438 138.523438 186.601562 137.925781 186.824219 C 137.398438 187.125 136.351562 187.125 135.824219 186.75 C 135.226562 186.375 134.625 184.949219 134.773438 184.199219 C 134.851562 183.601562 135.601562 182.851562 136.199219 182.625 C 136.800781 182.476562 137.773438 182.625 138.300781 183 C 138.824219 183.375 139.273438 184.273438 139.199219 184.875 C 139.199219 185.476562 138.675781 186.375 138.148438 186.75 C 137.625 187.050781 136.574219 187.125 136.050781 186.898438 C 135.449219 186.601562 135 185.851562 134.699219 185.175781 C 134.398438 184.425781 134.25 183.148438 134.476562 182.476562 C 134.625 181.949219 135 181.425781 135.449219 181.199219 C 135.976562 180.976562 137.023438 180.824219 137.550781 181.125 C 138.148438 181.351562 138.898438 182.773438 138.898438 182.773438 " clip-rule="nonzero"/></clipPath><mask id="dfc3e4f2aa"><g filter="url(#1e17159508)"><rect x="-37.5" width="450" fill="#000000" y="-37.499999" height="449.999989" fill-opacity="0.01"/></g></mask><clipPath id="7e240f2ff4"><path d="M 0.367188 0.933594 L 5.226562 0.933594 L 5.226562 7.046875 L 0.367188 7.046875 Z M 0.367188 0.933594 " clip-rule="nonzero"/></clipPath><clipPath id="e99efdd466"><path d="M 4.898438 2.773438 C 5.050781 5.773438 4.523438 6.601562 3.925781 6.824219 C 3.398438 7.125 2.351562 7.125 1.824219 6.75 C 1.226562 6.375 0.625 4.949219 0.773438 4.199219 C 0.851562 3.601562 1.601562 2.851562 2.199219 2.625 C 2.800781 2.476562 3.773438 2.625 4.300781 3 C 4.824219 3.375 5.273438 4.273438 5.199219 4.875 C 5.199219 5.476562 4.675781 6.375 4.148438 6.75 C 3.625 7.050781 2.574219 7.125 2.050781 6.898438 C 1.449219 6.601562 1 5.851562 0.699219 5.175781 C 0.398438 4.425781 0.25 3.148438 0.476562 2.476562 C 0.625 1.949219 1 1.425781 1.449219 1.199219 C 1.976562 0.976562 3.023438 0.824219 3.550781 1.125 C 4.148438 1.351562 4.898438 2.773438 4.898438 2.773438 " clip-rule="nonzero"/></clipPath><clipPath id="27be8fb3ee"><rect x="0" width="6" y="0" height="8"/></clipPath><clipPath id="1cec2e9ba4"><path d="M 135 181.28125 L 144.921875 181.28125 L 144.921875 186.238281 L 135 186.238281 Z M 135 181.28125 " clip-rule="nonzero"/></clipPath><clipPath id="08d2df462b"><path d="M 137.175781 181.5 C 144.675781 182.324219 144.976562 183.675781 144.75 184.425781 C 144.601562 185.023438 143.773438 185.625 143.175781 185.773438 C 142.574219 185.925781 141.601562 185.699219 141.148438 185.25 C 140.699219 184.875 140.25 183.898438 140.398438 183.300781 C 140.550781 182.550781 141.675781 181.5 142.351562 181.351562 C 142.949219 181.199219 143.925781 181.648438 144.375 182.101562 C 144.75 182.550781 145.050781 183.523438 144.824219 184.125 C 144.601562 184.875 143.699219 185.550781 142.726562 185.851562 C 141.148438 186.375 136.949219 186.375 135.824219 185.476562 C 135.148438 184.949219 134.851562 183.675781 135.074219 183 C 135.375 182.324219 137.175781 181.5 137.175781 181.5 " clip-rule="nonzero"/></clipPath><mask id="5d90a0f0b7"><g filter="url(#1e17159508)"><rect x="-37.5" width="450" fill="#000000" y="-37.499999" height="449.999989" fill-opacity="0.01"/></g></mask><clipPath id="00bbb6e48b"><path d="M 0 0.28125 L 9.921875 0.28125 L 9.921875 5.238281 L 0 5.238281 Z M 0 0.28125 " clip-rule="nonzero"/></clipPath><clipPath id="eecd8131a2"><path d="M 2.175781 0.5 C 9.675781 1.324219 9.976562 2.675781 9.75 3.425781 C 9.601562 4.023438 8.773438 4.625 8.175781 4.773438 C 7.574219 4.925781 6.601562 4.699219 6.148438 4.25 C 5.699219 3.875 5.25 2.898438 5.398438 2.300781 C 5.550781 1.550781 6.675781 0.5 7.351562 0.351562 C 7.949219 0.199219 8.925781 0.648438 9.375 1.101562 C 9.75 1.550781 10.050781 2.523438 9.824219 3.125 C 9.601562 3.875 8.699219 4.550781 7.726562 4.851562 C 6.148438 5.375 1.949219 5.375 0.824219 4.476562 C 0.148438 3.949219 -0.148438 2.675781 0.0742188 2 C 0.375 1.324219 2.175781 0.5 2.175781 0.5 " clip-rule="nonzero"/></clipPath><clipPath id="bd708f0bda"><rect x="0" width="10" y="0" height="6"/></clipPath><clipPath id="33e387faa3"><path d="M 139.886719 200 L 160.925781 200 L 160.925781 217.695312 L 139.886719 217.695312 Z M 139.886719 200 " clip-rule="nonzero"/></clipPath><clipPath id="739f8e29fb"><path d="M 145.875 200.851562 C 160.875 215.101562 160.949219 215.925781 160.648438 216.523438 C 160.273438 217.050781 159.601562 217.5 158.476562 217.574219 C 155.398438 217.949219 142.125 214.726562 140.398438 212.925781 C 139.800781 212.324219 139.875 211.648438 140.023438 211.125 C 140.175781 210.601562 140.773438 209.925781 141.300781 209.773438 C 141.898438 209.625 143.175781 210.074219 143.550781 210.523438 C 143.925781 210.976562 143.925781 211.875 143.773438 212.398438 C 143.550781 212.925781 142.875 213.523438 142.351562 213.601562 C 141.675781 213.675781 140.476562 213.074219 140.175781 212.550781 C 139.875 212.101562 139.875 211.199219 140.175781 210.675781 C 140.476562 210.148438 141.226562 209.851562 142.351562 209.699219 C 145.425781 209.398438 158.625 212.101562 160.351562 214.125 C 161.023438 214.800781 160.875 215.925781 160.648438 216.523438 C 160.425781 216.976562 159.976562 217.351562 159.449219 217.5 C 158.925781 217.648438 158.398438 217.574219 157.5 217.199219 C 154.875 216 145.726562 207.300781 143.550781 204.976562 C 142.800781 204.148438 142.351562 203.773438 142.199219 203.101562 C 141.976562 202.5 141.976562 201.601562 142.273438 201.074219 C 142.574219 200.550781 143.398438 200.101562 144 200.023438 C 144.601562 199.949219 145.875 200.851562 145.875 200.851562 " clip-rule="nonzero"/></clipPath><mask id="596cd988e0"><g filter="url(#1e17159508)"><rect x="-37.5" width="450" fill="#000000" y="-37.499999" height="449.999989" fill-opacity="0.01"/></g></mask><clipPath id="cff14295d6"><path d="M 0.886719 0 L 21.925781 0 L 21.925781 17.695312 L 0.886719 17.695312 Z M 0.886719 0 " clip-rule="nonzero"/></clipPath><clipPath id="ff08bc9a0e"><path d="M 6.875 0.851562 C 21.875 15.101562 21.949219 15.925781 21.648438 16.523438 C 21.273438 17.050781 20.601562 17.5 19.476562 17.574219 C 16.398438 17.949219 3.125 14.726562 1.398438 12.925781 C 0.800781 12.324219 0.875 11.648438 1.023438 11.125 C 1.175781 10.601562 1.773438 9.925781 2.300781 9.773438 C 2.898438 9.625 4.175781 10.074219 4.550781 10.523438 C 4.925781 10.976562 4.925781 11.875 4.773438 12.398438 C 4.550781 12.925781 3.875 13.523438 3.351562 13.601562 C 2.675781 13.675781 1.476562 13.074219 1.175781 12.550781 C 0.875 12.101562 0.875 11.199219 1.175781 10.675781 C 1.476562 10.148438 2.226562 9.851562 3.351562 9.699219 C 6.425781 9.398438 19.625 12.101562 21.351562 14.125 C 22.023438 14.800781 21.875 15.925781 21.648438 16.523438 C 21.425781 16.976562 20.976562 17.351562 20.449219 17.5 C 19.925781 17.648438 19.398438 17.574219 18.5 17.199219 C 15.875 16 6.726562 7.300781 4.550781 4.976562 C 3.800781 4.148438 3.351562 3.773438 3.199219 3.101562 C 2.976562 2.5 2.976562 1.601562 3.273438 1.074219 C 3.574219 0.550781 4.398438 0.101562 5 0.0234375 C 5.601562 -0.0507812 6.875 0.851562 6.875 0.851562 " clip-rule="nonzero"/></clipPath><clipPath id="95910535f1"><rect x="0" width="22" y="0" height="18"/></clipPath><clipPath id="48857582a6"><path d="M 121.621094 207.398438 L 141.777344 207.398438 L 141.777344 212.179688 L 121.621094 212.179688 Z M 121.621094 207.398438 " clip-rule="nonzero"/></clipPath><clipPath id="9a489dbaa9"><path d="M 140.023438 211.574219 C 127.875 212.476562 124.800781 212.175781 123.300781 211.574219 C 122.625 211.351562 122.101562 211.050781 121.875 210.523438 C 121.648438 210 121.875 208.648438 122.324219 208.273438 C 122.773438 207.824219 124.125 207.824219 124.648438 208.050781 C 125.101562 208.351562 125.476562 209.101562 125.550781 209.625 C 125.550781 210.226562 125.175781 210.976562 124.726562 211.273438 C 124.199219 211.574219 122.925781 211.5 122.398438 211.199219 C 121.949219 210.898438 121.574219 210.074219 121.648438 209.550781 C 121.800781 208.949219 122.398438 208.125 123.226562 207.824219 C 124.648438 207.300781 127.648438 208.726562 130.199219 208.726562 C 133.273438 208.800781 138.523438 206.851562 140.25 207.601562 C 141.148438 207.898438 141.75 208.800781 141.75 209.398438 C 141.75 210.148438 140.023438 211.574219 140.023438 211.574219 " clip-rule="nonzero"/></clipPath><mask id="d0d9c0fb03"><g filter="url(#1e17159508)"><rect x="-37.5" width="450" fill="#000000" y="-37.499999" height="449.999989" fill-opacity="0.01"/></g></mask><clipPath id="381290cf2e"><path d="M 0.621094 0.398438 L 20.777344 0.398438 L 20.777344 5.179688 L 0.621094 5.179688 Z M 0.621094 0.398438 " clip-rule="nonzero"/></clipPath><clipPath id="8776882a8e"><path d="M 19.023438 4.574219 C 6.875 5.476562 3.800781 5.175781 2.300781 4.574219 C 1.625 4.351562 1.101562 4.050781 0.875 3.523438 C 0.648438 3 0.875 1.648438 1.324219 1.273438 C 1.773438 0.824219 3.125 0.824219 3.648438 1.050781 C 4.101562 1.351562 4.476562 2.101562 4.550781 2.625 C 4.550781 3.226562 4.175781 3.976562 3.726562 4.273438 C 3.199219 4.574219 1.925781 4.5 1.398438 4.199219 C 0.949219 3.898438 0.574219 3.074219 0.648438 2.550781 C 0.800781 1.949219 1.398438 1.125 2.226562 0.824219 C 3.648438 0.300781 6.648438 1.726562 9.199219 1.726562 C 12.273438 1.800781 17.523438 -0.148438 19.25 0.601562 C 20.148438 0.898438 20.75 1.800781 20.75 2.398438 C 20.75 3.148438 19.023438 4.574219 19.023438 4.574219 " clip-rule="nonzero"/></clipPath><clipPath id="5c338e62ab"><rect x="0" width="21" y="0" height="6"/></clipPath><clipPath id="4f4a5e93b9"><path d="M 134.878906 199.828125 L 227.960938 199.828125 L 227.960938 242 L 134.878906 242 Z M 134.878906 199.828125 " clip-rule="nonzero"/></clipPath><clipPath id="627dde77ce"><path d="M 138 200.175781 C 149.550781 210.226562 155.25 212.925781 160.574219 215.699219 C 166.351562 218.625 172.875 221.925781 178.949219 224.398438 C 184.648438 226.726562 189.375 228.300781 195.898438 230.25 C 204.601562 232.949219 223.199219 235.726562 226.648438 238.425781 C 227.625 239.175781 228.074219 240.074219 227.925781 240.675781 C 227.699219 241.199219 226.199219 241.949219 225.601562 241.800781 C 225.074219 241.726562 224.625 241.050781 224.476562 240.601562 C 224.324219 240.074219 224.476562 239.25 224.851562 238.949219 C 225.375 238.574219 227.023438 238.5 227.476562 238.875 C 227.925781 239.25 228 240.523438 227.773438 240.976562 C 227.476562 241.5 226.875 241.800781 225.75 241.875 C 221.625 242.175781 203.550781 236.25 194.699219 233.625 C 188.101562 231.523438 183.226562 229.949219 177.449219 227.625 C 171.226562 225.074219 164.699219 221.851562 158.773438 218.851562 C 153.300781 216 147.300781 213.148438 143.101562 210.074219 C 139.800781 207.601562 135.675781 204.523438 135.074219 202.5 C 134.773438 201.523438 135 200.398438 135.523438 200.023438 C 135.976562 199.648438 138 200.175781 138 200.175781 " clip-rule="nonzero"/></clipPath><mask id="39fe539600"><g filter="url(#1e17159508)"><rect x="-37.5" width="450" fill="#000000" y="-37.499999" height="449.999989" fill-opacity="0.01"/></g></mask><clipPath id="adb705e2e4"><path d="M 0.878906 0.828125 L 93.960938 0.828125 L 93.960938 43 L 0.878906 43 Z M 0.878906 0.828125 " clip-rule="nonzero"/></clipPath><clipPath id="6735ca8b48"><path d="M 4 1.175781 C 15.550781 11.226562 21.25 13.925781 26.574219 16.699219 C 32.351562 19.625 38.875 22.925781 44.949219 25.398438 C 50.648438 27.726562 55.375 29.300781 61.898438 31.25 C 70.601562 33.949219 89.199219 36.726562 92.648438 39.425781 C 93.625 40.175781 94.074219 41.074219 93.925781 41.675781 C 93.699219 42.199219 92.199219 42.949219 91.601562 42.800781 C 91.074219 42.726562 90.625 42.050781 90.476562 41.601562 C 90.324219 41.074219 90.476562 40.25 90.851562 39.949219 C 91.375 39.574219 93.023438 39.5 93.476562 39.875 C 93.925781 40.25 94 41.523438 93.773438 41.976562 C 93.476562 42.5 92.875 42.800781 91.75 42.875 C 87.625 43.175781 69.550781 37.25 60.699219 34.625 C 54.101562 32.523438 49.226562 30.949219 43.449219 28.625 C 37.226562 26.074219 30.699219 22.851562 24.773438 19.851562 C 19.300781 17 13.300781 14.148438 9.101562 11.074219 C 5.800781 8.601562 1.675781 5.523438 1.074219 3.5 C 0.773438 2.523438 1 1.398438 1.523438 1.023438 C 1.976562 0.648438 4 1.175781 4 1.175781 " clip-rule="nonzero"/></clipPath><clipPath id="260266c784"><rect x="0" width="94" y="0" height="43"/></clipPath></defs><g fill="#ff00ff" fill-opacity="1"><g transform="translate(147.433024, 186.40431)"><g><path d="M 4.296875 0 L 1.734375 0 C 1.523438 0 1.375 -0.046875 1.28125 -0.140625 C 1.1875 -0.234375 1.140625 -0.382812 1.140625 -0.59375 L 1.140625 -11.28125 C 1.140625 -11.488281 1.1875 -11.640625 1.28125 -11.734375 C 1.375 -11.828125 1.523438 -11.875 1.734375 -11.875 L 4.296875 -11.875 C 4.503906 -11.875 4.65625 -11.828125 4.75 -11.734375 C 4.84375 -11.640625 4.890625 -11.488281 4.890625 -11.28125 L 4.890625 -7.484375 L 5.546875 -7.484375 L 7.25 -11.328125 C 7.320312 -11.523438 7.421875 -11.664062 7.546875 -11.75 C 7.679688 -11.832031 7.851562 -11.875 8.0625 -11.875 L 10.609375 -11.875 C 10.796875 -11.875 10.921875 -11.828125 10.984375 -11.734375 C 11.054688 -11.640625 11.050781 -11.503906 10.96875 -11.328125 L 9.296875 -7.484375 C 9.910156 -7.453125 10.398438 -7.234375 10.765625 -6.828125 C 11.128906 -6.429688 11.3125 -5.90625 11.3125 -5.25 L 11.3125 -0.59375 C 11.3125 -0.382812 11.265625 -0.234375 11.171875 -0.140625 C 11.078125 -0.046875 10.925781 0 10.71875 0 L 8.1875 0 C 7.976562 0 7.828125 -0.046875 7.734375 -0.140625 C 7.640625 -0.234375 7.59375 -0.382812 7.59375 -0.59375 L 7.59375 -3.8125 C 7.59375 -3.988281 7.546875 -4.125 7.453125 -4.21875 C 7.367188 -4.320312 7.238281 -4.375 7.0625 -4.375 L 4.890625 -4.375 L 4.890625 -0.59375 C 4.890625 -0.382812 4.84375 -0.234375 4.75 -0.140625 C 4.65625 -0.046875 4.503906 0 4.296875 0 Z M 4.296875 0 "/></g></g></g><g fill="#ff00ff" fill-opacity="1"><g transform="translate(159.746358, 186.40431)"><g><path d="M 11.203125 -3.125 C 11.203125 -2.613281 11.128906 -2.148438 10.984375 -1.734375 C 10.835938 -1.328125 10.570312 -0.976562 10.1875 -0.6875 C 9.8125 -0.394531 9.289062 -0.164062 8.625 0 C 7.957031 0.164062 7.113281 0.25 6.09375 0.25 C 5.0625 0.25 4.210938 0.164062 3.546875 0 C 2.878906 -0.164062 2.351562 -0.394531 1.96875 -0.6875 C 1.59375 -0.976562 1.328125 -1.328125 1.171875 -1.734375 C 1.023438 -2.148438 0.953125 -2.613281 0.953125 -3.125 L 0.953125 -8.75 C 0.953125 -9.25 1.023438 -9.703125 1.171875 -10.109375 C 1.328125 -10.523438 1.59375 -10.878906 1.96875 -11.171875 C 2.351562 -11.472656 2.878906 -11.707031 3.546875 -11.875 C 4.210938 -12.039062 5.0625 -12.125 6.09375 -12.125 C 7.113281 -12.125 7.957031 -12.039062 8.625 -11.875 C 9.289062 -11.707031 9.8125 -11.472656 10.1875 -11.171875 C 10.570312 -10.878906 10.835938 -10.523438 10.984375 -10.109375 C 11.128906 -9.703125 11.203125 -9.25 11.203125 -8.75 Z M 4.703125 -3.71875 C 4.703125 -3.488281 4.785156 -3.300781 4.953125 -3.15625 C 5.117188 -3.007812 5.5 -2.9375 6.09375 -2.9375 C 6.6875 -2.9375 7.0625 -3.007812 7.21875 -3.15625 C 7.382812 -3.300781 7.46875 -3.488281 7.46875 -3.71875 L 7.46875 -8.15625 C 7.46875 -8.363281 7.382812 -8.539062 7.21875 -8.6875 C 7.0625 -8.832031 6.6875 -8.90625 6.09375 -8.90625 C 5.5 -8.90625 5.117188 -8.832031 4.953125 -8.6875 C 4.785156 -8.539062 4.703125 -8.363281 4.703125 -8.15625 Z M 4.703125 -3.71875 "/></g></g></g><g fill="#ff00ff" fill-opacity="1"><g transform="translate(171.91114, 186.40431)"><g><path d="M 4.875 -8.90625 L 4.875 -6.796875 L 6.109375 -6.796875 C 6.390625 -6.796875 6.578125 -6.867188 6.671875 -7.015625 C 6.773438 -7.171875 6.828125 -7.359375 6.828125 -7.578125 L 6.828125 -8.140625 C 6.828125 -8.359375 6.773438 -8.539062 6.671875 -8.6875 C 6.578125 -8.832031 6.390625 -8.90625 6.109375 -8.90625 Z M 4.28125 0 L 1.734375 0 C 1.523438 0 1.375 -0.046875 1.28125 -0.140625 C 1.1875 -0.234375 1.140625 -0.382812 1.140625 -0.59375 L 1.140625 -11.28125 C 1.140625 -11.488281 1.1875 -11.640625 1.28125 -11.734375 C 1.375 -11.828125 1.523438 -11.875 1.734375 -11.875 L 7.234375 -11.875 C 8.460938 -11.875 9.3125 -11.617188 9.78125 -11.109375 C 10.25 -10.597656 10.484375 -9.9375 10.484375 -9.125 L 10.484375 -8.359375 C 10.484375 -7.898438 10.410156 -7.507812 10.265625 -7.1875 C 10.128906 -6.863281 9.890625 -6.628906 9.546875 -6.484375 C 10.140625 -6.421875 10.617188 -6.175781 10.984375 -5.75 C 11.359375 -5.332031 11.546875 -4.78125 11.546875 -4.09375 L 11.546875 -0.59375 C 11.546875 -0.382812 11.5 -0.234375 11.40625 -0.140625 C 11.3125 -0.046875 11.160156 0 10.953125 0 L 8.40625 0 C 8.1875 0 8.03125 -0.046875 7.9375 -0.140625 C 7.84375 -0.234375 7.796875 -0.382812 7.796875 -0.59375 L 7.796875 -3.125 C 7.796875 -3.363281 7.75 -3.539062 7.65625 -3.65625 C 7.570312 -3.769531 7.410156 -3.828125 7.171875 -3.828125 L 4.875 -3.828125 L 4.875 -0.59375 C 4.875 -0.382812 4.828125 -0.234375 4.734375 -0.140625 C 4.640625 -0.046875 4.488281 0 4.28125 0 Z M 4.28125 0 "/></g></g></g><g fill="#ff00ff" fill-opacity="1"><g transform="translate(184.174955, 186.40431)"><g><path d="M 1.46875 0 C 1.257812 0 1.109375 -0.046875 1.015625 -0.140625 C 0.921875 -0.234375 0.875 -0.382812 0.875 -0.59375 L 0.875 -2.5625 C 0.875 -2.769531 0.921875 -2.921875 1.015625 -3.015625 C 1.109375 -3.109375 1.257812 -3.15625 1.46875 -3.15625 L 3.109375 -3.15625 L 3.109375 -8.703125 L 1.46875 -8.703125 C 1.257812 -8.703125 1.109375 -8.742188 1.015625 -8.828125 C 0.921875 -8.921875 0.875 -9.078125 0.875 -9.296875 L 0.875 -11.28125 C 0.875 -11.488281 0.921875 -11.640625 1.015625 -11.734375 C 1.109375 -11.828125 1.257812 -11.875 1.46875 -11.875 L 8.5 -11.875 C 8.707031 -11.875 8.859375 -11.828125 8.953125 -11.734375 C 9.046875 -11.640625 9.09375 -11.488281 9.09375 -11.28125 L 9.09375 -9.296875 C 9.09375 -9.078125 9.046875 -8.921875 8.953125 -8.828125 C 8.859375 -8.742188 8.707031 -8.703125 8.5 -8.703125 L 6.890625 -8.703125 L 6.890625 -3.15625 L 8.5 -3.15625 C 8.707031 -3.15625 8.859375 -3.109375 8.953125 -3.015625 C 9.046875 -2.921875 9.09375 -2.769531 9.09375 -2.5625 L 9.09375 -0.59375 C 9.09375 -0.382812 9.046875 -0.234375 8.953125 -0.140625 C 8.859375 -0.046875 8.707031 0 8.5 0 Z M 1.46875 0 "/></g></g></g><g fill="#ff00ff" fill-opacity="1"><g transform="translate(194.160972, 186.40431)"><g><path d="M 6.65625 0 L 1.4375 0 C 1.226562 0 1.078125 -0.046875 0.984375 -0.140625 C 0.890625 -0.234375 0.84375 -0.382812 0.84375 -0.59375 L 0.84375 -2.53125 C 0.84375 -2.738281 0.890625 -2.890625 0.984375 -2.984375 C 1.078125 -3.078125 1.226562 -3.125 1.4375 -3.125 L 5.875 -3.125 C 6.019531 -3.125 6.125 -3.171875 6.1875 -3.265625 C 6.257812 -3.359375 6.296875 -3.46875 6.296875 -3.59375 C 6.296875 -3.78125 6.257812 -3.914062 6.1875 -4 C 6.125 -4.09375 6.019531 -4.144531 5.875 -4.15625 L 3.40625 -4.5 C 2.632812 -4.613281 2.015625 -4.867188 1.546875 -5.265625 C 1.078125 -5.660156 0.84375 -6.320312 0.84375 -7.25 L 0.84375 -8.96875 C 0.84375 -9.90625 1.144531 -10.625 1.75 -11.125 C 2.351562 -11.625 3.1875 -11.875 4.25 -11.875 L 8.875 -11.875 C 9.082031 -11.875 9.234375 -11.828125 9.328125 -11.734375 C 9.421875 -11.640625 9.46875 -11.488281 9.46875 -11.28125 L 9.46875 -9.328125 C 9.46875 -9.117188 9.421875 -8.96875 9.328125 -8.875 C 9.234375 -8.78125 9.082031 -8.734375 8.875 -8.734375 L 5.03125 -8.734375 C 4.882812 -8.734375 4.773438 -8.6875 4.703125 -8.59375 C 4.628906 -8.5 4.59375 -8.378906 4.59375 -8.234375 C 4.59375 -8.085938 4.628906 -7.960938 4.703125 -7.859375 C 4.773438 -7.765625 4.882812 -7.710938 5.03125 -7.703125 L 7.484375 -7.375 C 8.253906 -7.257812 8.875 -7.003906 9.34375 -6.609375 C 9.820312 -6.210938 10.0625 -5.554688 10.0625 -4.640625 L 10.0625 -2.90625 C 10.0625 -1.96875 9.753906 -1.25 9.140625 -0.75 C 8.535156 -0.25 7.707031 0 6.65625 0 Z M 6.65625 0 "/></g></g></g><g fill="#ff00ff" fill-opacity="1"><g transform="translate(204.889747, 186.40431)"><g><path d="M 4.296875 0 L 1.734375 0 C 1.523438 0 1.375 -0.046875 1.28125 -0.140625 C 1.1875 -0.234375 1.140625 -0.382812 1.140625 -0.59375 L 1.140625 -11.28125 C 1.140625 -11.488281 1.1875 -11.640625 1.28125 -11.734375 C 1.375 -11.828125 1.523438 -11.875 1.734375 -11.875 L 4.296875 -11.875 C 4.503906 -11.875 4.65625 -11.828125 4.75 -11.734375 C 4.84375 -11.640625 4.890625 -11.488281 4.890625 -11.28125 L 4.890625 -7.703125 L 7.640625 -7.703125 L 7.640625 -11.28125 C 7.640625 -11.488281 7.6875 -11.640625 7.78125 -11.734375 C 7.875 -11.828125 8.023438 -11.875 8.234375 -11.875 L 10.796875 -11.875 C 11.003906 -11.875 11.15625 -11.828125 11.25 -11.734375 C 11.34375 -11.640625 11.390625 -11.488281 11.390625 -11.28125 L 11.390625 -0.59375 C 11.390625 -0.382812 11.34375 -0.234375 11.25 -0.140625 C 11.15625 -0.046875 11.003906 0 10.796875 0 L 8.234375 0 C 8.023438 0 7.875 -0.046875 7.78125 -0.140625 C 7.6875 -0.234375 7.640625 -0.382812 7.640625 -0.59375 L 7.640625 -4.25 L 4.890625 -4.25 L 4.890625 -0.59375 C 4.890625 -0.382812 4.84375 -0.234375 4.75 -0.140625 C 4.65625 -0.046875 4.503906 0 4.296875 0 Z M 4.296875 0 "/></g></g></g><g fill="#ff00ff" fill-opacity="1"><g transform="translate(217.417654, 186.40431)"><g><path d="M 11.203125 -3.125 C 11.203125 -2.613281 11.128906 -2.148438 10.984375 -1.734375 C 10.835938 -1.328125 10.570312 -0.976562 10.1875 -0.6875 C 9.8125 -0.394531 9.289062 -0.164062 8.625 0 C 7.957031 0.164062 7.113281 0.25 6.09375 0.25 C 5.0625 0.25 4.210938 0.164062 3.546875 0 C 2.878906 -0.164062 2.351562 -0.394531 1.96875 -0.6875 C 1.59375 -0.976562 1.328125 -1.328125 1.171875 -1.734375 C 1.023438 -2.148438 0.953125 -2.613281 0.953125 -3.125 L 0.953125 -8.75 C 0.953125 -9.25 1.023438 -9.703125 1.171875 -10.109375 C 1.328125 -10.523438 1.59375 -10.878906 1.96875 -11.171875 C 2.351562 -11.472656 2.878906 -11.707031 3.546875 -11.875 C 4.210938 -12.039062 5.0625 -12.125 6.09375 -12.125 C 7.113281 -12.125 7.957031 -12.039062 8.625 -11.875 C 9.289062 -11.707031 9.8125 -11.472656 10.1875 -11.171875 C 10.570312 -10.878906 10.835938 -10.523438 10.984375 -10.109375 C 11.128906 -9.703125 11.203125 -9.25 11.203125 -8.75 Z M 4.703125 -3.71875 C 4.703125 -3.488281 4.785156 -3.300781 4.953125 -3.15625 C 5.117188 -3.007812 5.5 -2.9375 6.09375 -2.9375 C 6.6875 -2.9375 7.0625 -3.007812 7.21875 -3.15625 C 7.382812 -3.300781 7.46875 -3.488281 7.46875 -3.71875 L 7.46875 -8.15625 C 7.46875 -8.363281 7.382812 -8.539062 7.21875 -8.6875 C 7.0625 -8.832031 6.6875 -8.90625 6.09375 -8.90625 C 5.5 -8.90625 5.117188 -8.832031 4.953125 -8.6875 C 4.785156 -8.539062 4.703125 -8.363281 4.703125 -8.15625 Z M 4.703125 -3.71875 "/></g></g></g><g fill="#ff00ff" fill-opacity="1"><g transform="translate(229.582433, 186.40431)"><g><path d="M 9.671875 -11.875 L 12.125 -11.875 C 12.332031 -11.875 12.484375 -11.828125 12.578125 -11.734375 C 12.671875 -11.640625 12.71875 -11.488281 12.71875 -11.28125 L 12.71875 -4.890625 C 12.71875 -4.535156 12.703125 -4.207031 12.671875 -3.90625 C 12.648438 -3.601562 12.566406 -3.25 12.421875 -2.84375 L 11.59375 -0.59375 C 11.539062 -0.425781 11.460938 -0.285156 11.359375 -0.171875 C 11.253906 -0.0546875 11.113281 0 10.9375 0 L 8.75 0 C 8.570312 0 8.410156 -0.0351562 8.265625 -0.109375 C 8.117188 -0.191406 8.023438 -0.320312 7.984375 -0.5 L 7.234375 -3.1875 C 7.191406 -3.289062 7.144531 -3.363281 7.09375 -3.40625 C 7.050781 -3.445312 7 -3.46875 6.9375 -3.46875 L 6.78125 -3.46875 C 6.71875 -3.46875 6.660156 -3.445312 6.609375 -3.40625 C 6.554688 -3.363281 6.515625 -3.289062 6.484375 -3.1875 L 5.703125 -0.5 C 5.660156 -0.332031 5.578125 -0.207031 5.453125 -0.125 C 5.335938 -0.0390625 5.191406 0 5.015625 0 L 2.84375 0 C 2.664062 0 2.507812 -0.0507812 2.375 -0.15625 C 2.25 -0.269531 2.160156 -0.414062 2.109375 -0.59375 L 1.28125 -2.875 C 1.144531 -3.28125 1.0625 -3.632812 1.03125 -3.9375 C 1 -4.238281 0.984375 -4.566406 0.984375 -4.921875 L 0.984375 -11.28125 C 0.984375 -11.488281 1.03125 -11.640625 1.125 -11.734375 C 1.21875 -11.828125 1.367188 -11.875 1.578125 -11.875 L 4.125 -11.875 C 4.332031 -11.875 4.484375 -11.828125 4.578125 -11.734375 C 4.671875 -11.640625 4.71875 -11.488281 4.71875 -11.28125 L 4.71875 -5.21875 L 5.671875 -7.296875 C 5.765625 -7.484375 5.878906 -7.613281 6.015625 -7.6875 C 6.160156 -7.757812 6.335938 -7.796875 6.546875 -7.796875 L 7.25 -7.796875 C 7.457031 -7.796875 7.628906 -7.757812 7.765625 -7.6875 C 7.910156 -7.613281 8.03125 -7.484375 8.125 -7.296875 L 9.078125 -5.21875 L 9.078125 -11.28125 C 9.078125 -11.488281 9.125 -11.640625 9.21875 -11.734375 C 9.3125 -11.828125 9.460938 -11.875 9.671875 -11.875 Z M 9.671875 -11.875 "/></g></g></g><g fill="#00ffff" fill-opacity="1"><g transform="translate(148.293122, 185.602249)"><g><path d="M 4.296875 0 L 1.734375 0 C 1.523438 0 1.375 -0.046875 1.28125 -0.140625 C 1.1875 -0.234375 1.140625 -0.382812 1.140625 -0.59375 L 1.140625 -11.28125 C 1.140625 -11.488281 1.1875 -11.640625 1.28125 -11.734375 C 1.375 -11.828125 1.523438 -11.875 1.734375 -11.875 L 4.296875 -11.875 C 4.503906 -11.875 4.65625 -11.828125 4.75 -11.734375 C 4.84375 -11.640625 4.890625 -11.488281 4.890625 -11.28125 L 4.890625 -7.484375 L 5.546875 -7.484375 L 7.25 -11.328125 C 7.320312 -11.523438 7.421875 -11.664062 7.546875 -11.75 C 7.679688 -11.832031 7.851562 -11.875 8.0625 -11.875 L 10.609375 -11.875 C 10.796875 -11.875 10.921875 -11.828125 10.984375 -11.734375 C 11.054688 -11.640625 11.050781 -11.503906 10.96875 -11.328125 L 9.296875 -7.484375 C 9.910156 -7.453125 10.398438 -7.234375 10.765625 -6.828125 C 11.128906 -6.429688 11.3125 -5.90625 11.3125 -5.25 L 11.3125 -0.59375 C 11.3125 -0.382812 11.265625 -0.234375 11.171875 -0.140625 C 11.078125 -0.046875 10.925781 0 10.71875 0 L 8.1875 0 C 7.976562 0 7.828125 -0.046875 7.734375 -0.140625 C 7.640625 -0.234375 7.59375 -0.382812 7.59375 -0.59375 L 7.59375 -3.8125 C 7.59375 -3.988281 7.546875 -4.125 7.453125 -4.21875 C 7.367188 -4.320312 7.238281 -4.375 7.0625 -4.375 L 4.890625 -4.375 L 4.890625 -0.59375 C 4.890625 -0.382812 4.84375 -0.234375 4.75 -0.140625 C 4.65625 -0.046875 4.503906 0 4.296875 0 Z M 4.296875 0 "/></g></g></g><g fill="#00ffff" fill-opacity="1"><g transform="translate(160.606456, 185.602249)"><g><path d="M 11.203125 -3.125 C 11.203125 -2.613281 11.128906 -2.148438 10.984375 -1.734375 C 10.835938 -1.328125 10.570312 -0.976562 10.1875 -0.6875 C 9.8125 -0.394531 9.289062 -0.164062 8.625 0 C 7.957031 0.164062 7.113281 0.25 6.09375 0.25 C 5.0625 0.25 4.210938 0.164062 3.546875 0 C 2.878906 -0.164062 2.351562 -0.394531 1.96875 -0.6875 C 1.59375 -0.976562 1.328125 -1.328125 1.171875 -1.734375 C 1.023438 -2.148438 0.953125 -2.613281 0.953125 -3.125 L 0.953125 -8.75 C 0.953125 -9.25 1.023438 -9.703125 1.171875 -10.109375 C 1.328125 -10.523438 1.59375 -10.878906 1.96875 -11.171875 C 2.351562 -11.472656 2.878906 -11.707031 3.546875 -11.875 C 4.210938 -12.039062 5.0625 -12.125 6.09375 -12.125 C 7.113281 -12.125 7.957031 -12.039062 8.625 -11.875 C 9.289062 -11.707031 9.8125 -11.472656 10.1875 -11.171875 C 10.570312 -10.878906 10.835938 -10.523438 10.984375 -10.109375 C 11.128906 -9.703125 11.203125 -9.25 11.203125 -8.75 Z M 4.703125 -3.71875 C 4.703125 -3.488281 4.785156 -3.300781 4.953125 -3.15625 C 5.117188 -3.007812 5.5 -2.9375 6.09375 -2.9375 C 6.6875 -2.9375 7.0625 -3.007812 7.21875 -3.15625 C 7.382812 -3.300781 7.46875 -3.488281 7.46875 -3.71875 L 7.46875 -8.15625 C 7.46875 -8.363281 7.382812 -8.539062 7.21875 -8.6875 C 7.0625 -8.832031 6.6875 -8.90625 6.09375 -8.90625 C 5.5 -8.90625 5.117188 -8.832031 4.953125 -8.6875 C 4.785156 -8.539062 4.703125 -8.363281 4.703125 -8.15625 Z M 4.703125 -3.71875 "/></g></g></g><g fill="#00ffff" fill-opacity="1"><g transform="translate(172.771237, 185.602249)"><g><path d="M 4.875 -8.90625 L 4.875 -6.796875 L 6.109375 -6.796875 C 6.390625 -6.796875 6.578125 -6.867188 6.671875 -7.015625 C 6.773438 -7.171875 6.828125 -7.359375 6.828125 -7.578125 L 6.828125 -8.140625 C 6.828125 -8.359375 6.773438 -8.539062 6.671875 -8.6875 C 6.578125 -8.832031 6.390625 -8.90625 6.109375 -8.90625 Z M 4.28125 0 L 1.734375 0 C 1.523438 0 1.375 -0.046875 1.28125 -0.140625 C 1.1875 -0.234375 1.140625 -0.382812 1.140625 -0.59375 L 1.140625 -11.28125 C 1.140625 -11.488281 1.1875 -11.640625 1.28125 -11.734375 C 1.375 -11.828125 1.523438 -11.875 1.734375 -11.875 L 7.234375 -11.875 C 8.460938 -11.875 9.3125 -11.617188 9.78125 -11.109375 C 10.25 -10.597656 10.484375 -9.9375 10.484375 -9.125 L 10.484375 -8.359375 C 10.484375 -7.898438 10.410156 -7.507812 10.265625 -7.1875 C 10.128906 -6.863281 9.890625 -6.628906 9.546875 -6.484375 C 10.140625 -6.421875 10.617188 -6.175781 10.984375 -5.75 C 11.359375 -5.332031 11.546875 -4.78125 11.546875 -4.09375 L 11.546875 -0.59375 C 11.546875 -0.382812 11.5 -0.234375 11.40625 -0.140625 C 11.3125 -0.046875 11.160156 0 10.953125 0 L 8.40625 0 C 8.1875 0 8.03125 -0.046875 7.9375 -0.140625 C 7.84375 -0.234375 7.796875 -0.382812 7.796875 -0.59375 L 7.796875 -3.125 C 7.796875 -3.363281 7.75 -3.539062 7.65625 -3.65625 C 7.570312 -3.769531 7.410156 -3.828125 7.171875 -3.828125 L 4.875 -3.828125 L 4.875 -0.59375 C 4.875 -0.382812 4.828125 -0.234375 4.734375 -0.140625 C 4.640625 -0.046875 4.488281 0 4.28125 0 Z M 4.28125 0 "/></g></g></g><g fill="#00ffff" fill-opacity="1"><g transform="translate(185.035052, 185.602249)"><g><path d="M 1.46875 0 C 1.257812 0 1.109375 -0.046875 1.015625 -0.140625 C 0.921875 -0.234375 0.875 -0.382812 0.875 -0.59375 L 0.875 -2.5625 C 0.875 -2.769531 0.921875 -2.921875 1.015625 -3.015625 C 1.109375 -3.109375 1.257812 -3.15625 1.46875 -3.15625 L 3.109375 -3.15625 L 3.109375 -8.703125 L 1.46875 -8.703125 C 1.257812 -8.703125 1.109375 -8.742188 1.015625 -8.828125 C 0.921875 -8.921875 0.875 -9.078125 0.875 -9.296875 L 0.875 -11.28125 C 0.875 -11.488281 0.921875 -11.640625 1.015625 -11.734375 C 1.109375 -11.828125 1.257812 -11.875 1.46875 -11.875 L 8.5 -11.875 C 8.707031 -11.875 8.859375 -11.828125 8.953125 -11.734375 C 9.046875 -11.640625 9.09375 -11.488281 9.09375 -11.28125 L 9.09375 -9.296875 C 9.09375 -9.078125 9.046875 -8.921875 8.953125 -8.828125 C 8.859375 -8.742188 8.707031 -8.703125 8.5 -8.703125 L 6.890625 -8.703125 L 6.890625 -3.15625 L 8.5 -3.15625 C 8.707031 -3.15625 8.859375 -3.109375 8.953125 -3.015625 C 9.046875 -2.921875 9.09375 -2.769531 9.09375 -2.5625 L 9.09375 -0.59375 C 9.09375 -0.382812 9.046875 -0.234375 8.953125 -0.140625 C 8.859375 -0.046875 8.707031 0 8.5 0 Z M 1.46875 0 "/></g></g></g><g fill="#00ffff" fill-opacity="1"><g transform="translate(195.021069, 185.602249)"><g><path d="M 6.65625 0 L 1.4375 0 C 1.226562 0 1.078125 -0.046875 0.984375 -0.140625 C 0.890625 -0.234375 0.84375 -0.382812 0.84375 -0.59375 L 0.84375 -2.53125 C 0.84375 -2.738281 0.890625 -2.890625 0.984375 -2.984375 C 1.078125 -3.078125 1.226562 -3.125 1.4375 -3.125 L 5.875 -3.125 C 6.019531 -3.125 6.125 -3.171875 6.1875 -3.265625 C 6.257812 -3.359375 6.296875 -3.46875 6.296875 -3.59375 C 6.296875 -3.78125 6.257812 -3.914062 6.1875 -4 C 6.125 -4.09375 6.019531 -4.144531 5.875 -4.15625 L 3.40625 -4.5 C 2.632812 -4.613281 2.015625 -4.867188 1.546875 -5.265625 C 1.078125 -5.660156 0.84375 -6.320312 0.84375 -7.25 L 0.84375 -8.96875 C 0.84375 -9.90625 1.144531 -10.625 1.75 -11.125 C 2.351562 -11.625 3.1875 -11.875 4.25 -11.875 L 8.875 -11.875 C 9.082031 -11.875 9.234375 -11.828125 9.328125 -11.734375 C 9.421875 -11.640625 9.46875 -11.488281 9.46875 -11.28125 L 9.46875 -9.328125 C 9.46875 -9.117188 9.421875 -8.96875 9.328125 -8.875 C 9.234375 -8.78125 9.082031 -8.734375 8.875 -8.734375 L 5.03125 -8.734375 C 4.882812 -8.734375 4.773438 -8.6875 4.703125 -8.59375 C 4.628906 -8.5 4.59375 -8.378906 4.59375 -8.234375 C 4.59375 -8.085938 4.628906 -7.960938 4.703125 -7.859375 C 4.773438 -7.765625 4.882812 -7.710938 5.03125 -7.703125 L 7.484375 -7.375 C 8.253906 -7.257812 8.875 -7.003906 9.34375 -6.609375 C 9.820312 -6.210938 10.0625 -5.554688 10.0625 -4.640625 L 10.0625 -2.90625 C 10.0625 -1.96875 9.753906 -1.25 9.140625 -0.75 C 8.535156 -0.25 7.707031 0 6.65625 0 Z M 6.65625 0 "/></g></g></g><g fill="#00ffff" fill-opacity="1"><g transform="translate(205.749844, 185.602249)"><g><path d="M 4.296875 0 L 1.734375 0 C 1.523438 0 1.375 -0.046875 1.28125 -0.140625 C 1.1875 -0.234375 1.140625 -0.382812 1.140625 -0.59375 L 1.140625 -11.28125 C 1.140625 -11.488281 1.1875 -11.640625 1.28125 -11.734375 C 1.375 -11.828125 1.523438 -11.875 1.734375 -11.875 L 4.296875 -11.875 C 4.503906 -11.875 4.65625 -11.828125 4.75 -11.734375 C 4.84375 -11.640625 4.890625 -11.488281 4.890625 -11.28125 L 4.890625 -7.703125 L 7.640625 -7.703125 L 7.640625 -11.28125 C 7.640625 -11.488281 7.6875 -11.640625 7.78125 -11.734375 C 7.875 -11.828125 8.023438 -11.875 8.234375 -11.875 L 10.796875 -11.875 C 11.003906 -11.875 11.15625 -11.828125 11.25 -11.734375 C 11.34375 -11.640625 11.390625 -11.488281 11.390625 -11.28125 L 11.390625 -0.59375 C 11.390625 -0.382812 11.34375 -0.234375 11.25 -0.140625 C 11.15625 -0.046875 11.003906 0 10.796875 0 L 8.234375 0 C 8.023438 0 7.875 -0.046875 7.78125 -0.140625 C 7.6875 -0.234375 7.640625 -0.382812 7.640625 -0.59375 L 7.640625 -4.25 L 4.890625 -4.25 L 4.890625 -0.59375 C 4.890625 -0.382812 4.84375 -0.234375 4.75 -0.140625 C 4.65625 -0.046875 4.503906 0 4.296875 0 Z M 4.296875 0 "/></g></g></g><g fill="#00ffff" fill-opacity="1"><g transform="translate(218.277751, 185.602249)"><g><path d="M 11.203125 -3.125 C 11.203125 -2.613281 11.128906 -2.148438 10.984375 -1.734375 C 10.835938 -1.328125 10.570312 -0.976562 10.1875 -0.6875 C 9.8125 -0.394531 9.289062 -0.164062 8.625 0 C 7.957031 0.164062 7.113281 0.25 6.09375 0.25 C 5.0625 0.25 4.210938 0.164062 3.546875 0 C 2.878906 -0.164062 2.351562 -0.394531 1.96875 -0.6875 C 1.59375 -0.976562 1.328125 -1.328125 1.171875 -1.734375 C 1.023438 -2.148438 0.953125 -2.613281 0.953125 -3.125 L 0.953125 -8.75 C 0.953125 -9.25 1.023438 -9.703125 1.171875 -10.109375 C 1.328125 -10.523438 1.59375 -10.878906 1.96875 -11.171875 C 2.351562 -11.472656 2.878906 -11.707031 3.546875 -11.875 C 4.210938 -12.039062 5.0625 -12.125 6.09375 -12.125 C 7.113281 -12.125 7.957031 -12.039062 8.625 -11.875 C 9.289062 -11.707031 9.8125 -11.472656 10.1875 -11.171875 C 10.570312 -10.878906 10.835938 -10.523438 10.984375 -10.109375 C 11.128906 -9.703125 11.203125 -9.25 11.203125 -8.75 Z M 4.703125 -3.71875 C 4.703125 -3.488281 4.785156 -3.300781 4.953125 -3.15625 C 5.117188 -3.007812 5.5 -2.9375 6.09375 -2.9375 C 6.6875 -2.9375 7.0625 -3.007812 7.21875 -3.15625 C 7.382812 -3.300781 7.46875 -3.488281 7.46875 -3.71875 L 7.46875 -8.15625 C 7.46875 -8.363281 7.382812 -8.539062 7.21875 -8.6875 C 7.0625 -8.832031 6.6875 -8.90625 6.09375 -8.90625 C 5.5 -8.90625 5.117188 -8.832031 4.953125 -8.6875 C 4.785156 -8.539062 4.703125 -8.363281 4.703125 -8.15625 Z M 4.703125 -3.71875 "/></g></g></g><g fill="#00ffff" fill-opacity="1"><g transform="translate(230.44253, 185.602249)"><g><path d="M 9.671875 -11.875 L 12.125 -11.875 C 12.332031 -11.875 12.484375 -11.828125 12.578125 -11.734375 C 12.671875 -11.640625 12.71875 -11.488281 12.71875 -11.28125 L 12.71875 -4.890625 C 12.71875 -4.535156 12.703125 -4.207031 12.671875 -3.90625 C 12.648438 -3.601562 12.566406 -3.25 12.421875 -2.84375 L 11.59375 -0.59375 C 11.539062 -0.425781 11.460938 -0.285156 11.359375 -0.171875 C 11.253906 -0.0546875 11.113281 0 10.9375 0 L 8.75 0 C 8.570312 0 8.410156 -0.0351562 8.265625 -0.109375 C 8.117188 -0.191406 8.023438 -0.320312 7.984375 -0.5 L 7.234375 -3.1875 C 7.191406 -3.289062 7.144531 -3.363281 7.09375 -3.40625 C 7.050781 -3.445312 7 -3.46875 6.9375 -3.46875 L 6.78125 -3.46875 C 6.71875 -3.46875 6.660156 -3.445312 6.609375 -3.40625 C 6.554688 -3.363281 6.515625 -3.289062 6.484375 -3.1875 L 5.703125 -0.5 C 5.660156 -0.332031 5.578125 -0.207031 5.453125 -0.125 C 5.335938 -0.0390625 5.191406 0 5.015625 0 L 2.84375 0 C 2.664062 0 2.507812 -0.0507812 2.375 -0.15625 C 2.25 -0.269531 2.160156 -0.414062 2.109375 -0.59375 L 1.28125 -2.875 C 1.144531 -3.28125 1.0625 -3.632812 1.03125 -3.9375 C 1 -4.238281 0.984375 -4.566406 0.984375 -4.921875 L 0.984375 -11.28125 C 0.984375 -11.488281 1.03125 -11.640625 1.125 -11.734375 C 1.21875 -11.828125 1.367188 -11.875 1.578125 -11.875 L 4.125 -11.875 C 4.332031 -11.875 4.484375 -11.828125 4.578125 -11.734375 C 4.671875 -11.640625 4.71875 -11.488281 4.71875 -11.28125 L 4.71875 -5.21875 L 5.671875 -7.296875 C 5.765625 -7.484375 5.878906 -7.613281 6.015625 -7.6875 C 6.160156 -7.757812 6.335938 -7.796875 6.546875 -7.796875 L 7.25 -7.796875 C 7.457031 -7.796875 7.628906 -7.757812 7.765625 -7.6875 C 7.910156 -7.613281 8.03125 -7.484375 8.125 -7.296875 L 9.078125 -5.21875 L 9.078125 -11.28125 C 9.078125 -11.488281 9.125 -11.640625 9.21875 -11.734375 C 9.3125 -11.828125 9.460938 -11.875 9.671875 -11.875 Z M 9.671875 -11.875 "/></g></g></g><g fill="#7843e6" fill-opacity="1"><g transform="translate(147.863073, 186.003279)"><g><path d="M 4.296875 0 L 1.734375 0 C 1.523438 0 1.375 -0.046875 1.28125 -0.140625 C 1.1875 -0.234375 1.140625 -0.382812 1.140625 -0.59375 L 1.140625 -11.28125 C 1.140625 -11.488281 1.1875 -11.640625 1.28125 -11.734375 C 1.375 -11.828125 1.523438 -11.875 1.734375 -11.875 L 4.296875 -11.875 C 4.503906 -11.875 4.65625 -11.828125 4.75 -11.734375 C 4.84375 -11.640625 4.890625 -11.488281 4.890625 -11.28125 L 4.890625 -7.484375 L 5.546875 -7.484375 L 7.25 -11.328125 C 7.320312 -11.523438 7.421875 -11.664062 7.546875 -11.75 C 7.679688 -11.832031 7.851562 -11.875 8.0625 -11.875 L 10.609375 -11.875 C 10.796875 -11.875 10.921875 -11.828125 10.984375 -11.734375 C 11.054688 -11.640625 11.050781 -11.503906 10.96875 -11.328125 L 9.296875 -7.484375 C 9.910156 -7.453125 10.398438 -7.234375 10.765625 -6.828125 C 11.128906 -6.429688 11.3125 -5.90625 11.3125 -5.25 L 11.3125 -0.59375 C 11.3125 -0.382812 11.265625 -0.234375 11.171875 -0.140625 C 11.078125 -0.046875 10.925781 0 10.71875 0 L 8.1875 0 C 7.976562 0 7.828125 -0.046875 7.734375 -0.140625 C 7.640625 -0.234375 7.59375 -0.382812 7.59375 -0.59375 L 7.59375 -3.8125 C 7.59375 -3.988281 7.546875 -4.125 7.453125 -4.21875 C 7.367188 -4.320312 7.238281 -4.375 7.0625 -4.375 L 4.890625 -4.375 L 4.890625 -0.59375 C 4.890625 -0.382812 4.84375 -0.234375 4.75 -0.140625 C 4.65625 -0.046875 4.503906 0 4.296875 0 Z M 4.296875 0 "/></g></g></g><g fill="#7843e6" fill-opacity="1"><g transform="translate(160.176407, 186.003279)"><g><path d="M 11.203125 -3.125 C 11.203125 -2.613281 11.128906 -2.148438 10.984375 -1.734375 C 10.835938 -1.328125 10.570312 -0.976562 10.1875 -0.6875 C 9.8125 -0.394531 9.289062 -0.164062 8.625 0 C 7.957031 0.164062 7.113281 0.25 6.09375 0.25 C 5.0625 0.25 4.210938 0.164062 3.546875 0 C 2.878906 -0.164062 2.351562 -0.394531 1.96875 -0.6875 C 1.59375 -0.976562 1.328125 -1.328125 1.171875 -1.734375 C 1.023438 -2.148438 0.953125 -2.613281 0.953125 -3.125 L 0.953125 -8.75 C 0.953125 -9.25 1.023438 -9.703125 1.171875 -10.109375 C 1.328125 -10.523438 1.59375 -10.878906 1.96875 -11.171875 C 2.351562 -11.472656 2.878906 -11.707031 3.546875 -11.875 C 4.210938 -12.039062 5.0625 -12.125 6.09375 -12.125 C 7.113281 -12.125 7.957031 -12.039062 8.625 -11.875 C 9.289062 -11.707031 9.8125 -11.472656 10.1875 -11.171875 C 10.570312 -10.878906 10.835938 -10.523438 10.984375 -10.109375 C 11.128906 -9.703125 11.203125 -9.25 11.203125 -8.75 Z M 4.703125 -3.71875 C 4.703125 -3.488281 4.785156 -3.300781 4.953125 -3.15625 C 5.117188 -3.007812 5.5 -2.9375 6.09375 -2.9375 C 6.6875 -2.9375 7.0625 -3.007812 7.21875 -3.15625 C 7.382812 -3.300781 7.46875 -3.488281 7.46875 -3.71875 L 7.46875 -8.15625 C 7.46875 -8.363281 7.382812 -8.539062 7.21875 -8.6875 C 7.0625 -8.832031 6.6875 -8.90625 6.09375 -8.90625 C 5.5 -8.90625 5.117188 -8.832031 4.953125 -8.6875 C 4.785156 -8.539062 4.703125 -8.363281 4.703125 -8.15625 Z M 4.703125 -3.71875 "/></g></g></g><g fill="#7843e6" fill-opacity="1"><g transform="translate(172.341189, 186.003279)"><g><path d="M 4.875 -8.90625 L 4.875 -6.796875 L 6.109375 -6.796875 C 6.390625 -6.796875 6.578125 -6.867188 6.671875 -7.015625 C 6.773438 -7.171875 6.828125 -7.359375 6.828125 -7.578125 L 6.828125 -8.140625 C 6.828125 -8.359375 6.773438 -8.539062 6.671875 -8.6875 C 6.578125 -8.832031 6.390625 -8.90625 6.109375 -8.90625 Z M 4.28125 0 L 1.734375 0 C 1.523438 0 1.375 -0.046875 1.28125 -0.140625 C 1.1875 -0.234375 1.140625 -0.382812 1.140625 -0.59375 L 1.140625 -11.28125 C 1.140625 -11.488281 1.1875 -11.640625 1.28125 -11.734375 C 1.375 -11.828125 1.523438 -11.875 1.734375 -11.875 L 7.234375 -11.875 C 8.460938 -11.875 9.3125 -11.617188 9.78125 -11.109375 C 10.25 -10.597656 10.484375 -9.9375 10.484375 -9.125 L 10.484375 -8.359375 C 10.484375 -7.898438 10.410156 -7.507812 10.265625 -7.1875 C 10.128906 -6.863281 9.890625 -6.628906 9.546875 -6.484375 C 10.140625 -6.421875 10.617188 -6.175781 10.984375 -5.75 C 11.359375 -5.332031 11.546875 -4.78125 11.546875 -4.09375 L 11.546875 -0.59375 C 11.546875 -0.382812 11.5 -0.234375 11.40625 -0.140625 C 11.3125 -0.046875 11.160156 0 10.953125 0 L 8.40625 0 C 8.1875 0 8.03125 -0.046875 7.9375 -0.140625 C 7.84375 -0.234375 7.796875 -0.382812 7.796875 -0.59375 L 7.796875 -3.125 C 7.796875 -3.363281 7.75 -3.539062 7.65625 -3.65625 C 7.570312 -3.769531 7.410156 -3.828125 7.171875 -3.828125 L 4.875 -3.828125 L 4.875 -0.59375 C 4.875 -0.382812 4.828125 -0.234375 4.734375 -0.140625 C 4.640625 -0.046875 4.488281 0 4.28125 0 Z M 4.28125 0 "/></g></g></g><g fill="#7843e6" fill-opacity="1"><g transform="translate(184.605003, 186.003279)"><g><path d="M 1.46875 0 C 1.257812 0 1.109375 -0.046875 1.015625 -0.140625 C 0.921875 -0.234375 0.875 -0.382812 0.875 -0.59375 L 0.875 -2.5625 C 0.875 -2.769531 0.921875 -2.921875 1.015625 -3.015625 C 1.109375 -3.109375 1.257812 -3.15625 1.46875 -3.15625 L 3.109375 -3.15625 L 3.109375 -8.703125 L 1.46875 -8.703125 C 1.257812 -8.703125 1.109375 -8.742188 1.015625 -8.828125 C 0.921875 -8.921875 0.875 -9.078125 0.875 -9.296875 L 0.875 -11.28125 C 0.875 -11.488281 0.921875 -11.640625 1.015625 -11.734375 C 1.109375 -11.828125 1.257812 -11.875 1.46875 -11.875 L 8.5 -11.875 C 8.707031 -11.875 8.859375 -11.828125 8.953125 -11.734375 C 9.046875 -11.640625 9.09375 -11.488281 9.09375 -11.28125 L 9.09375 -9.296875 C 9.09375 -9.078125 9.046875 -8.921875 8.953125 -8.828125 C 8.859375 -8.742188 8.707031 -8.703125 8.5 -8.703125 L 6.890625 -8.703125 L 6.890625 -3.15625 L 8.5 -3.15625 C 8.707031 -3.15625 8.859375 -3.109375 8.953125 -3.015625 C 9.046875 -2.921875 9.09375 -2.769531 9.09375 -2.5625 L 9.09375 -0.59375 C 9.09375 -0.382812 9.046875 -0.234375 8.953125 -0.140625 C 8.859375 -0.046875 8.707031 0 8.5 0 Z M 1.46875 0 "/></g></g></g><g fill="#7843e6" fill-opacity="1"><g transform="translate(194.59102, 186.003279)"><g><path d="M 6.65625 0 L 1.4375 0 C 1.226562 0 1.078125 -0.046875 0.984375 -0.140625 C 0.890625 -0.234375 0.84375 -0.382812 0.84375 -0.59375 L 0.84375 -2.53125 C 0.84375 -2.738281 0.890625 -2.890625 0.984375 -2.984375 C 1.078125 -3.078125 1.226562 -3.125 1.4375 -3.125 L 5.875 -3.125 C 6.019531 -3.125 6.125 -3.171875 6.1875 -3.265625 C 6.257812 -3.359375 6.296875 -3.46875 6.296875 -3.59375 C 6.296875 -3.78125 6.257812 -3.914062 6.1875 -4 C 6.125 -4.09375 6.019531 -4.144531 5.875 -4.15625 L 3.40625 -4.5 C 2.632812 -4.613281 2.015625 -4.867188 1.546875 -5.265625 C 1.078125 -5.660156 0.84375 -6.320312 0.84375 -7.25 L 0.84375 -8.96875 C 0.84375 -9.90625 1.144531 -10.625 1.75 -11.125 C 2.351562 -11.625 3.1875 -11.875 4.25 -11.875 L 8.875 -11.875 C 9.082031 -11.875 9.234375 -11.828125 9.328125 -11.734375 C 9.421875 -11.640625 9.46875 -11.488281 9.46875 -11.28125 L 9.46875 -9.328125 C 9.46875 -9.117188 9.421875 -8.96875 9.328125 -8.875 C 9.234375 -8.78125 9.082031 -8.734375 8.875 -8.734375 L 5.03125 -8.734375 C 4.882812 -8.734375 4.773438 -8.6875 4.703125 -8.59375 C 4.628906 -8.5 4.59375 -8.378906 4.59375 -8.234375 C 4.59375 -8.085938 4.628906 -7.960938 4.703125 -7.859375 C 4.773438 -7.765625 4.882812 -7.710938 5.03125 -7.703125 L 7.484375 -7.375 C 8.253906 -7.257812 8.875 -7.003906 9.34375 -6.609375 C 9.820312 -6.210938 10.0625 -5.554688 10.0625 -4.640625 L 10.0625 -2.90625 C 10.0625 -1.96875 9.753906 -1.25 9.140625 -0.75 C 8.535156 -0.25 7.707031 0 6.65625 0 Z M 6.65625 0 "/></g></g></g><g fill="#7843e6" fill-opacity="1"><g transform="translate(205.319795, 186.003279)"><g><path d="M 4.296875 0 L 1.734375 0 C 1.523438 0 1.375 -0.046875 1.28125 -0.140625 C 1.1875 -0.234375 1.140625 -0.382812 1.140625 -0.59375 L 1.140625 -11.28125 C 1.140625 -11.488281 1.1875 -11.640625 1.28125 -11.734375 C 1.375 -11.828125 1.523438 -11.875 1.734375 -11.875 L 4.296875 -11.875 C 4.503906 -11.875 4.65625 -11.828125 4.75 -11.734375 C 4.84375 -11.640625 4.890625 -11.488281 4.890625 -11.28125 L 4.890625 -7.703125 L 7.640625 -7.703125 L 7.640625 -11.28125 C 7.640625 -11.488281 7.6875 -11.640625 7.78125 -11.734375 C 7.875 -11.828125 8.023438 -11.875 8.234375 -11.875 L 10.796875 -11.875 C 11.003906 -11.875 11.15625 -11.828125 11.25 -11.734375 C 11.34375 -11.640625 11.390625 -11.488281 11.390625 -11.28125 L 11.390625 -0.59375 C 11.390625 -0.382812 11.34375 -0.234375 11.25 -0.140625 C 11.15625 -0.046875 11.003906 0 10.796875 0 L 8.234375 0 C 8.023438 0 7.875 -0.046875 7.78125 -0.140625 C 7.6875 -0.234375 7.640625 -0.382812 7.640625 -0.59375 L 7.640625 -4.25 L 4.890625 -4.25 L 4.890625 -0.59375 C 4.890625 -0.382812 4.84375 -0.234375 4.75 -0.140625 C 4.65625 -0.046875 4.503906 0 4.296875 0 Z M 4.296875 0 "/></g></g></g><g fill="#7843e6" fill-opacity="1"><g transform="translate(217.847702, 186.003279)"><g><path d="M 11.203125 -3.125 C 11.203125 -2.613281 11.128906 -2.148438 10.984375 -1.734375 C 10.835938 -1.328125 10.570312 -0.976562 10.1875 -0.6875 C 9.8125 -0.394531 9.289062 -0.164062 8.625 0 C 7.957031 0.164062 7.113281 0.25 6.09375 0.25 C 5.0625 0.25 4.210938 0.164062 3.546875 0 C 2.878906 -0.164062 2.351562 -0.394531 1.96875 -0.6875 C 1.59375 -0.976562 1.328125 -1.328125 1.171875 -1.734375 C 1.023438 -2.148438 0.953125 -2.613281 0.953125 -3.125 L 0.953125 -8.75 C 0.953125 -9.25 1.023438 -9.703125 1.171875 -10.109375 C 1.328125 -10.523438 1.59375 -10.878906 1.96875 -11.171875 C 2.351562 -11.472656 2.878906 -11.707031 3.546875 -11.875 C 4.210938 -12.039062 5.0625 -12.125 6.09375 -12.125 C 7.113281 -12.125 7.957031 -12.039062 8.625 -11.875 C 9.289062 -11.707031 9.8125 -11.472656 10.1875 -11.171875 C 10.570312 -10.878906 10.835938 -10.523438 10.984375 -10.109375 C 11.128906 -9.703125 11.203125 -9.25 11.203125 -8.75 Z M 4.703125 -3.71875 C 4.703125 -3.488281 4.785156 -3.300781 4.953125 -3.15625 C 5.117188 -3.007812 5.5 -2.9375 6.09375 -2.9375 C 6.6875 -2.9375 7.0625 -3.007812 7.21875 -3.15625 C 7.382812 -3.300781 7.46875 -3.488281 7.46875 -3.71875 L 7.46875 -8.15625 C 7.46875 -8.363281 7.382812 -8.539062 7.21875 -8.6875 C 7.0625 -8.832031 6.6875 -8.90625 6.09375 -8.90625 C 5.5 -8.90625 5.117188 -8.832031 4.953125 -8.6875 C 4.785156 -8.539062 4.703125 -8.363281 4.703125 -8.15625 Z M 4.703125 -3.71875 "/></g></g></g><g fill="#7843e6" fill-opacity="1"><g transform="translate(230.012482, 186.003279)"><g><path d="M 9.671875 -11.875 L 12.125 -11.875 C 12.332031 -11.875 12.484375 -11.828125 12.578125 -11.734375 C 12.671875 -11.640625 12.71875 -11.488281 12.71875 -11.28125 L 12.71875 -4.890625 C 12.71875 -4.535156 12.703125 -4.207031 12.671875 -3.90625 C 12.648438 -3.601562 12.566406 -3.25 12.421875 -2.84375 L 11.59375 -0.59375 C 11.539062 -0.425781 11.460938 -0.285156 11.359375 -0.171875 C 11.253906 -0.0546875 11.113281 0 10.9375 0 L 8.75 0 C 8.570312 0 8.410156 -0.0351562 8.265625 -0.109375 C 8.117188 -0.191406 8.023438 -0.320312 7.984375 -0.5 L 7.234375 -3.1875 C 7.191406 -3.289062 7.144531 -3.363281 7.09375 -3.40625 C 7.050781 -3.445312 7 -3.46875 6.9375 -3.46875 L 6.78125 -3.46875 C 6.71875 -3.46875 6.660156 -3.445312 6.609375 -3.40625 C 6.554688 -3.363281 6.515625 -3.289062 6.484375 -3.1875 L 5.703125 -0.5 C 5.660156 -0.332031 5.578125 -0.207031 5.453125 -0.125 C 5.335938 -0.0390625 5.191406 0 5.015625 0 L 2.84375 0 C 2.664062 0 2.507812 -0.0507812 2.375 -0.15625 C 2.25 -0.269531 2.160156 -0.414062 2.109375 -0.59375 L 1.28125 -2.875 C 1.144531 -3.28125 1.0625 -3.632812 1.03125 -3.9375 C 1 -4.238281 0.984375 -4.566406 0.984375 -4.921875 L 0.984375 -11.28125 C 0.984375 -11.488281 1.03125 -11.640625 1.125 -11.734375 C 1.21875 -11.828125 1.367188 -11.875 1.578125 -11.875 L 4.125 -11.875 C 4.332031 -11.875 4.484375 -11.828125 4.578125 -11.734375 C 4.671875 -11.640625 4.71875 -11.488281 4.71875 -11.28125 L 4.71875 -5.21875 L 5.671875 -7.296875 C 5.765625 -7.484375 5.878906 -7.613281 6.015625 -7.6875 C 6.160156 -7.757812 6.335938 -7.796875 6.546875 -7.796875 L 7.25 -7.796875 C 7.457031 -7.796875 7.628906 -7.757812 7.765625 -7.6875 C 7.910156 -7.613281 8.03125 -7.484375 8.125 -7.296875 L 9.078125 -5.21875 L 9.078125 -11.28125 C 9.078125 -11.488281 9.125 -11.640625 9.21875 -11.734375 C 9.3125 -11.828125 9.460938 -11.875 9.671875 -11.875 Z M 9.671875 -11.875 "/></g></g></g><g clip-path="url(#b4ce11619e)"><g clip-path="url(#6f23f3ce19)"><g mask="url(#dfc3e4f2aa)"><g transform="matrix(1, 0, 0, 1, 134, 180)"><g clip-path="url(#27be8fb3ee)"><g clip-path="url(#7e240f2ff4)"><g clip-path="url(#e99efdd466)"><rect x="-216.5" width="540" fill="#ffffff" height="539.999987" y="-262.499998" fill-opacity="1"/></g></g></g></g></g></g></g><g clip-path="url(#1cec2e9ba4)"><g clip-path="url(#08d2df462b)"><g mask="url(#5d90a0f0b7)"><g transform="matrix(1, 0, 0, 1, 135, 181)"><g clip-path="url(#bd708f0bda)"><g clip-path="url(#00bbb6e48b)"><g clip-path="url(#eecd8131a2)"><rect x="-217.5" width="540" fill="#ffffff" height="539.999987" y="-263.499998" fill-opacity="1"/></g></g></g></g></g></g></g><g clip-path="url(#33e387faa3)"><g clip-path="url(#739f8e29fb)"><g mask="url(#596cd988e0)"><g transform="matrix(1, 0, 0, 1, 139, 200)"><g clip-path="url(#95910535f1)"><g clip-path="url(#cff14295d6)"><g clip-path="url(#ff08bc9a0e)"><rect x="-221.5" width="540" fill="#ffffff" height="539.999987" y="-282.499998" fill-opacity="1"/></g></g></g></g></g></g></g><g clip-path="url(#48857582a6)"><g clip-path="url(#9a489dbaa9)"><g mask="url(#d0d9c0fb03)"><g transform="matrix(1, 0, 0, 1, 121, 207)"><g clip-path="url(#5c338e62ab)"><g clip-path="url(#381290cf2e)"><g clip-path="url(#8776882a8e)"><rect x="-203.5" width="540" fill="#ffffff" height="539.999987" y="-289.499998" fill-opacity="1"/></g></g></g></g></g></g></g><g clip-path="url(#4f4a5e93b9)"><g clip-path="url(#627dde77ce)"><g mask="url(#39fe539600)"><g transform="matrix(1, 0, 0, 1, 134, 199)"><g clip-path="url(#260266c784)"><g clip-path="url(#adb705e2e4)"><g clip-path="url(#6735ca8b48)"><rect x="-216.5" width="540" fill="#ffffff" height="539.999987" y="-281.499998" fill-opacity="1"/></g></g></g></g></g></g></g><path fill="#000000" d="M 277.445312 199.75 C 278.503906 137.6875 232.660156 112.824219 194.710938 113.417969 C 193.210938 113.355469 158.019531 112.285156 133.71875 137.296875 C 133.460938 137.574219 133.261719 137.894531 133.125 138.25 C 132.988281 138.605469 132.925781 138.972656 132.933594 139.355469 C 132.945312 139.734375 133.023438 140.101562 133.175781 140.449219 C 133.328125 140.800781 133.539062 141.105469 133.8125 141.371094 C 134.085938 141.636719 134.398438 141.84375 134.753906 141.984375 C 135.105469 142.128906 135.472656 142.199219 135.851562 142.195312 C 136.234375 142.195312 136.601562 142.121094 136.953125 141.976562 C 137.304688 141.828125 137.613281 141.621094 137.886719 141.351562 C 168.207031 111.925781 219.351562 112.007812 249.828125 139.871094 C 264.515625 153.851562 271.648438 174.699219 271.714844 200.753906 C 279.363281 241.773438 255.933594 276.867188 194.597656 275.863281 C 133.511719 276.882812 110.121094 241.589844 117.484375 200.730469 C 117.585938 181.261719 121.503906 164.429688 129.796875 151.59375 C 130 151.269531 130.128906 150.917969 130.191406 150.542969 C 130.253906 150.164062 130.242188 149.789062 130.15625 149.417969 C 130.070312 149.046875 129.917969 148.703125 129.699219 148.394531 C 129.476562 148.082031 129.207031 147.824219 128.886719 147.617188 C 128.566406 147.410156 128.214844 147.273438 127.839844 147.207031 C 127.464844 147.140625 127.09375 147.144531 126.71875 147.222656 C 126.347656 147.304688 126.003906 147.449219 125.6875 147.664062 C 125.371094 147.878906 125.109375 148.148438 124.898438 148.464844 C 116.21875 162.097656 111.792969 179.351562 111.75 199.761719 C 110.972656 203.40625 105.511719 232.535156 123.609375 255.328125 C 137.492188 272.8125 161.375 281.679688 194.597656 281.679688 C 258.503906 282.925781 286.128906 244.726562 277.445312 199.75 Z M 277.445312 199.75 " fill-opacity="1" fill-rule="nonzero"/><path fill="#000000" d="M 159.882812 221.675781 C 166.351562 221.636719 172.523438 220.261719 178.398438 217.542969 C 180.960938 216.414062 183.609375 215.5625 186.34375 214.980469 C 189.082031 214.402344 191.847656 214.113281 194.644531 214.105469 C 197.441406 214.101562 200.210938 214.382812 202.949219 214.953125 C 205.6875 215.519531 208.339844 216.363281 210.902344 217.484375 C 237.289062 229.328125 259.195312 215.253906 258.359375 191.804688 C 258.34375 191.421875 258.257812 191.054688 258.097656 190.707031 C 257.941406 190.359375 257.722656 190.054688 257.441406 189.792969 C 257.164062 189.53125 256.847656 189.335938 256.488281 189.199219 C 256.132812 189.0625 255.761719 189 255.382812 189.007812 C 255 189.019531 254.632812 189.101562 254.285156 189.253906 C 253.933594 189.410156 253.628906 189.621094 253.363281 189.898438 C 253.097656 190.171875 252.894531 190.488281 252.753906 190.84375 C 252.613281 191.199219 252.546875 191.570312 252.550781 191.949219 C 253.070312 214.339844 232.171875 220.902344 213.371094 212.21875 C 210.457031 210.929688 207.4375 209.953125 204.320312 209.289062 C 201.199219 208.625 198.046875 208.289062 194.859375 208.28125 C 191.667969 208.273438 188.511719 208.589844 185.390625 209.238281 C 182.269531 209.882812 179.246094 210.84375 176.320312 212.117188 C 171.695312 214.261719 166.839844 215.496094 161.75 215.816406 C 144.527344 217.273438 135.109375 204.152344 137.03125 188.652344 C 139.808594 163.671875 147.890625 149.324219 160.40625 147.164062 C 162.53125 146.816406 164.652344 146.835938 166.769531 147.222656 C 168.886719 147.609375 170.878906 148.339844 172.742188 149.417969 C 176.078125 151.453125 179.605469 153.070312 183.324219 154.269531 C 187.042969 155.46875 190.847656 156.214844 194.742188 156.511719 C 198.621094 156.210938 202.414062 155.460938 206.113281 154.261719 C 209.816406 153.066406 213.328125 151.449219 216.648438 149.421875 C 235.203125 140.730469 246.753906 155.859375 251.175781 180.460938 C 251.246094 180.835938 251.386719 181.183594 251.59375 181.5 C 251.804688 181.820312 252.066406 182.089844 252.378906 182.304688 C 252.691406 182.523438 253.035156 182.671875 253.410156 182.753906 C 253.78125 182.835938 254.15625 182.839844 254.53125 182.773438 C 254.90625 182.707031 255.253906 182.574219 255.578125 182.371094 C 255.902344 182.164062 256.171875 181.90625 256.394531 181.597656 C 256.613281 181.285156 256.769531 180.945312 256.855469 180.574219 C 256.941406 180.199219 256.953125 179.824219 256.894531 179.449219 C 250.71875 145.238281 232.769531 135.097656 213.789062 144.359375 C 207.925781 147.929688 201.582031 150.039062 194.753906 150.695312 C 191.363281 150.378906 188.054688 149.6875 184.820312 148.617188 C 181.589844 147.546875 178.519531 146.128906 175.609375 144.359375 C 173.160156 142.949219 170.546875 141.996094 167.769531 141.496094 C 164.988281 140.992188 162.207031 140.972656 159.417969 141.433594 C 148.730469 143.277344 135.164062 152.855469 131.257812 188.007812 C 129.695312 203.183594 136.269531 221.265625 159.882812 221.675781 Z M 159.882812 221.675781 " fill-opacity="1" fill-rule="nonzero"/><path fill="#000000" d="M 144.148438 228.011719 C 143.8125 227.824219 143.453125 227.707031 143.074219 227.664062 C 142.691406 227.617188 142.3125 227.644531 141.941406 227.75 C 141.574219 227.855469 141.234375 228.027344 140.933594 228.265625 C 140.628906 228.503906 140.386719 228.789062 140.195312 229.125 C 139.882812 229.683594 132.660156 242.859375 140.394531 253.324219 C 140.667969 253.695312 141.011719 253.984375 141.421875 254.191406 C 141.835938 254.398438 142.273438 254.503906 142.734375 254.503906 C 143.277344 254.496094 143.78125 254.347656 144.242188 254.054688 C 144.707031 253.765625 145.058594 253.378906 145.304688 252.890625 C 145.550781 252.402344 145.648438 251.886719 145.605469 251.34375 C 145.5625 250.800781 145.382812 250.308594 145.066406 249.863281 C 139.582031 242.445312 145.210938 232.070312 145.269531 231.964844 C 145.453125 231.628906 145.570312 231.269531 145.617188 230.886719 C 145.660156 230.503906 145.628906 230.128906 145.523438 229.757812 C 145.421875 229.386719 145.25 229.050781 145.011719 228.75 C 144.773438 228.445312 144.484375 228.203125 144.148438 228.011719 Z M 144.148438 228.011719 " fill-opacity="1" fill-rule="nonzero"/><path fill="#000000" d="M 163.5 227.835938 C 163.140625 227.699219 162.769531 227.632812 162.382812 227.644531 C 162 227.652344 161.632812 227.734375 161.28125 227.890625 C 160.925781 228.046875 160.617188 228.265625 160.351562 228.542969 C 160.085938 228.820312 159.882812 229.140625 159.746094 229.5 C 159.453125 230.257812 152.65625 248.21875 159.867188 262.347656 C 160.042969 262.691406 160.277344 262.988281 160.570312 263.234375 C 160.863281 263.484375 161.195312 263.667969 161.558594 263.785156 C 161.925781 263.90625 162.300781 263.949219 162.683594 263.917969 C 163.066406 263.886719 163.429688 263.785156 163.773438 263.609375 C 164.113281 263.433594 164.410156 263.199219 164.660156 262.90625 C 164.910156 262.613281 165.09375 262.285156 165.214844 261.917969 C 165.332031 261.550781 165.378906 261.175781 165.347656 260.792969 C 165.316406 260.410156 165.214844 260.046875 165.042969 259.703125 C 159.023438 247.910156 165.101562 231.757812 165.164062 231.597656 C 165.304688 231.238281 165.367188 230.863281 165.359375 230.480469 C 165.347656 230.09375 165.265625 229.726562 165.109375 229.371094 C 164.953125 229.019531 164.734375 228.710938 164.457031 228.445312 C 164.179688 228.179688 163.859375 227.976562 163.5 227.835938 Z M 163.5 227.835938 " fill-opacity="1" fill-rule="nonzero"/><path fill="#000000" d="M 244.855469 253.929688 C 245.164062 254.160156 245.503906 254.320312 245.878906 254.414062 C 246.253906 254.507812 246.628906 254.527344 247.011719 254.46875 C 247.390625 254.414062 247.746094 254.285156 248.078125 254.085938 C 248.40625 253.886719 248.6875 253.632812 248.914062 253.324219 C 256.652344 242.859375 249.425781 229.683594 249.113281 229.125 C 248.925781 228.792969 248.675781 228.511719 248.375 228.277344 C 248.074219 228.042969 247.738281 227.875 247.367188 227.773438 C 247 227.671875 246.625 227.644531 246.246094 227.691406 C 245.867188 227.734375 245.507812 227.851562 245.175781 228.039062 C 244.839844 228.226562 244.554688 228.472656 244.320312 228.773438 C 244.082031 229.070312 243.910156 229.40625 243.804688 229.773438 C 243.699219 230.140625 243.667969 230.515625 243.710938 230.898438 C 243.75 231.277344 243.863281 231.636719 244.046875 231.972656 C 244.105469 232.074219 249.769531 242.390625 244.246094 249.863281 C 244.015625 250.175781 243.855469 250.515625 243.761719 250.890625 C 243.667969 251.265625 243.652344 251.640625 243.707031 252.023438 C 243.765625 252.40625 243.890625 252.761719 244.089844 253.089844 C 244.289062 253.421875 244.542969 253.703125 244.855469 253.929688 Z M 244.855469 253.929688 " fill-opacity="1" fill-rule="nonzero"/><path fill="#000000" d="M 225.535156 263.617188 C 225.878906 263.789062 226.242188 263.894531 226.625 263.921875 C 227.007812 263.953125 227.382812 263.910156 227.75 263.789062 C 228.117188 263.671875 228.445312 263.488281 228.738281 263.238281 C 229.035156 262.988281 229.269531 262.691406 229.445312 262.347656 C 236.65625 248.21875 229.859375 230.257812 229.566406 229.5 C 229.421875 229.144531 229.21875 228.832031 228.953125 228.558594 C 228.6875 228.285156 228.378906 228.070312 228.027344 227.921875 C 227.679688 227.769531 227.3125 227.6875 226.929688 227.679688 C 226.550781 227.671875 226.179688 227.738281 225.824219 227.875 C 225.46875 228.011719 225.152344 228.214844 224.875 228.476562 C 224.597656 228.738281 224.382812 229.042969 224.226562 229.390625 C 224.070312 229.738281 223.984375 230.105469 223.96875 230.484375 C 223.957031 230.867188 224.015625 231.238281 224.148438 231.59375 C 224.207031 231.757812 230.285156 247.910156 224.269531 259.703125 C 224.09375 260.046875 223.992188 260.410156 223.960938 260.792969 C 223.929688 261.179688 223.972656 261.554688 224.09375 261.921875 C 224.210938 262.289062 224.394531 262.617188 224.644531 262.914062 C 224.894531 263.207031 225.191406 263.441406 225.535156 263.617188 Z M 225.535156 263.617188 " fill-opacity="1" fill-rule="nonzero"/><path fill="#000000" d="M 184.585938 261.894531 C 184.972656 261.894531 185.34375 261.820312 185.699219 261.671875 C 186.054688 261.527344 186.371094 261.316406 186.640625 261.042969 C 186.914062 260.769531 187.125 260.457031 187.273438 260.097656 C 187.417969 259.742188 187.492188 259.371094 187.492188 258.988281 L 187.492188 247.371094 L 189.671875 249.550781 C 189.945312 249.8125 190.261719 250.011719 190.613281 250.152344 C 190.96875 250.292969 191.332031 250.359375 191.714844 250.355469 C 192.09375 250.351562 192.457031 250.273438 192.808594 250.125 C 193.160156 249.976562 193.46875 249.769531 193.734375 249.5 C 194.003906 249.230469 194.210938 248.921875 194.359375 248.570312 C 194.507812 248.21875 194.582031 247.855469 194.585938 247.472656 C 194.589844 247.09375 194.519531 246.726562 194.378906 246.375 C 194.242188 246.019531 194.039062 245.707031 193.777344 245.429688 L 190.425781 242.082031 C 192.71875 238.234375 194.117188 234.085938 194.617188 229.632812 C 194.648438 229.226562 194.597656 228.835938 194.464844 228.453125 C 194.332031 228.066406 194.128906 227.726562 193.855469 227.429688 C 193.578125 227.132812 193.257812 226.898438 192.886719 226.734375 C 192.515625 226.570312 192.128906 226.488281 191.722656 226.484375 L 177.453125 226.484375 C 177.070312 226.492188 176.703125 226.570312 176.355469 226.71875 C 176.003906 226.867188 175.691406 227.078125 175.425781 227.351562 C 175.15625 227.625 174.949219 227.9375 174.804688 228.289062 C 174.660156 228.644531 174.589844 229.011719 174.589844 229.394531 C 174.589844 229.777344 174.660156 230.144531 174.804688 230.496094 C 174.949219 230.851562 175.15625 231.164062 175.425781 231.4375 C 175.691406 231.707031 176.003906 231.917969 176.355469 232.070312 C 176.703125 232.21875 177.070312 232.296875 177.453125 232.300781 L 188.25 232.300781 C 187.230469 236.367188 184.519531 243.195312 177.601562 245.554688 C 177.28125 245.667969 176.992188 245.835938 176.730469 246.054688 C 176.46875 246.273438 176.25 246.527344 176.078125 246.824219 C 175.90625 247.117188 175.789062 247.429688 175.726562 247.765625 C 175.664062 248.101562 175.664062 248.4375 175.71875 248.773438 C 175.773438 249.109375 175.886719 249.429688 176.050781 249.726562 C 176.21875 250.023438 176.429688 250.28125 176.6875 250.503906 C 176.945312 250.726562 177.234375 250.902344 177.554688 251.023438 C 177.871094 251.144531 178.199219 251.207031 178.539062 251.214844 C 179.652344 251.046875 180.699219 250.691406 181.683594 250.144531 L 181.683594 258.988281 C 181.683594 259.371094 181.757812 259.742188 181.902344 260.101562 C 182.050781 260.457031 182.261719 260.769531 182.535156 261.042969 C 182.804688 261.316406 183.121094 261.527344 183.476562 261.671875 C 183.832031 261.820312 184.203125 261.894531 184.585938 261.894531 Z M 184.585938 261.894531 " fill-opacity="1" fill-rule="nonzero"/><path fill="#000000" d="M 211.859375 226.484375 L 199.695312 226.484375 C 199.3125 226.492188 198.945312 226.570312 198.59375 226.71875 C 198.242188 226.867188 197.933594 227.078125 197.667969 227.351562 C 197.398438 227.625 197.191406 227.9375 197.046875 228.289062 C 196.902344 228.644531 196.828125 229.011719 196.828125 229.394531 C 196.828125 229.777344 196.902344 230.144531 197.046875 230.496094 C 197.191406 230.851562 197.398438 231.164062 197.667969 231.4375 C 197.933594 231.707031 198.242188 231.917969 198.59375 232.070312 C 198.945312 232.21875 199.3125 232.296875 199.695312 232.300781 L 211.859375 232.300781 C 212.238281 232.296875 212.605469 232.21875 212.957031 232.070312 C 213.308594 231.917969 213.617188 231.707031 213.886719 231.4375 C 214.152344 231.164062 214.359375 230.851562 214.503906 230.496094 C 214.648438 230.144531 214.722656 229.777344 214.722656 229.394531 C 214.722656 229.011719 214.648438 228.644531 214.503906 228.289062 C 214.359375 227.9375 214.152344 227.625 213.886719 227.351562 C 213.617188 227.078125 213.308594 226.867188 212.957031 226.71875 C 212.605469 226.570312 212.238281 226.492188 211.859375 226.484375 Z M 211.859375 226.484375 " fill-opacity="1" fill-rule="nonzero"/><path fill="#000000" d="M 211.859375 234.851562 L 199.695312 234.851562 C 199.308594 234.851562 198.9375 234.925781 198.582031 235.074219 C 198.226562 235.21875 197.910156 235.429688 197.640625 235.703125 C 197.367188 235.976562 197.15625 236.289062 197.007812 236.648438 C 196.863281 237.003906 196.789062 237.375 196.789062 237.761719 L 196.789062 258.988281 C 196.789062 259.371094 196.863281 259.742188 197.007812 260.097656 C 197.15625 260.457031 197.367188 260.769531 197.640625 261.042969 C 197.910156 261.316406 198.226562 261.527344 198.582031 261.671875 C 198.9375 261.820312 199.308594 261.894531 199.695312 261.894531 L 211.859375 261.894531 C 212.242188 261.894531 212.613281 261.820312 212.96875 261.671875 C 213.328125 261.527344 213.640625 261.316406 213.914062 261.042969 C 214.183594 260.769531 214.394531 260.457031 214.542969 260.097656 C 214.691406 259.742188 214.761719 259.371094 214.761719 258.988281 L 214.761719 237.761719 C 214.761719 237.375 214.691406 237.003906 214.542969 236.648438 C 214.394531 236.289062 214.183594 235.976562 213.914062 235.703125 C 213.640625 235.429688 213.328125 235.21875 212.96875 235.074219 C 212.613281 234.925781 212.242188 234.851562 211.859375 234.851562 Z M 208.953125 240.667969 L 208.953125 245.464844 L 202.597656 245.464844 L 202.597656 240.667969 Z M 202.597656 256.078125 L 202.597656 251.28125 L 208.953125 251.28125 L 208.953125 256.078125 Z M 202.597656 256.078125 " fill-opacity="1" fill-rule="nonzero"/><g fill="#7843e6" fill-opacity="1"><g transform="translate(145.512007, 200.975975)"><g><path d="M 8.078125 0 L 6.3125 0 L 5.3125 -3.859375 C 5.28125 -3.992188 5.21875 -4.273438 5.125 -4.703125 C 5.039062 -5.140625 4.988281 -5.429688 4.96875 -5.578125 C 4.945312 -5.398438 4.894531 -5.109375 4.8125 -4.703125 C 4.738281 -4.304688 4.679688 -4.019531 4.640625 -3.84375 L 3.640625 0 L 1.875 0 L 0 -7.34375 L 1.53125 -7.34375 L 2.46875 -3.34375 C 2.632812 -2.601562 2.753906 -1.957031 2.828125 -1.40625 C 2.847656 -1.601562 2.894531 -1.898438 2.96875 -2.296875 C 3.039062 -2.703125 3.109375 -3.015625 3.171875 -3.234375 L 4.25 -7.34375 L 5.71875 -7.34375 L 6.78125 -3.234375 C 6.832031 -3.046875 6.890625 -2.757812 6.953125 -2.375 C 7.023438 -2 7.082031 -1.675781 7.125 -1.40625 C 7.15625 -1.675781 7.207031 -2.003906 7.28125 -2.390625 C 7.351562 -2.773438 7.421875 -3.09375 7.484375 -3.34375 L 8.421875 -7.34375 L 9.953125 -7.34375 Z M 8.078125 0 "/></g></g></g><g fill="#7843e6" fill-opacity="1"><g transform="translate(155.472421, 200.975975)"><g><path d="M 4.375 0 L 4.078125 -0.765625 L 4.03125 -0.765625 C 3.78125 -0.441406 3.515625 -0.21875 3.234375 -0.09375 C 2.960938 0.03125 2.609375 0.09375 2.171875 0.09375 C 1.628906 0.09375 1.203125 -0.0546875 0.890625 -0.359375 C 0.585938 -0.671875 0.4375 -1.109375 0.4375 -1.671875 C 0.4375 -2.273438 0.644531 -2.71875 1.0625 -3 C 1.476562 -3.28125 2.109375 -3.4375 2.953125 -3.46875 L 3.921875 -3.5 L 3.921875 -3.75 C 3.921875 -4.3125 3.628906 -4.59375 3.046875 -4.59375 C 2.597656 -4.59375 2.070312 -4.457031 1.46875 -4.1875 L 0.953125 -5.234375 C 1.597656 -5.566406 2.316406 -5.734375 3.109375 -5.734375 C 3.859375 -5.734375 4.429688 -5.566406 4.828125 -5.234375 C 5.234375 -4.910156 5.4375 -4.414062 5.4375 -3.75 L 5.4375 0 Z M 3.921875 -2.609375 L 3.328125 -2.578125 C 2.878906 -2.566406 2.546875 -2.488281 2.328125 -2.34375 C 2.109375 -2.195312 2 -1.972656 2 -1.671875 C 2 -1.234375 2.25 -1.015625 2.75 -1.015625 C 3.101562 -1.015625 3.382812 -1.117188 3.59375 -1.328125 C 3.8125 -1.535156 3.921875 -1.804688 3.921875 -2.140625 Z M 3.921875 -2.609375 "/></g></g></g><g fill="#7843e6" fill-opacity="1"><g transform="translate(161.695167, 200.975975)"><g><path d="M 3.171875 -1.125 C 3.441406 -1.125 3.765625 -1.179688 4.140625 -1.296875 L 4.140625 -0.15625 C 3.753906 0.0078125 3.285156 0.09375 2.734375 0.09375 C 2.117188 0.09375 1.671875 -0.0546875 1.390625 -0.359375 C 1.109375 -0.671875 0.96875 -1.140625 0.96875 -1.765625 L 0.96875 -4.46875 L 0.234375 -4.46875 L 0.234375 -5.125 L 1.078125 -5.625 L 1.515625 -6.8125 L 2.5 -6.8125 L 2.5 -5.625 L 4.078125 -5.625 L 4.078125 -4.46875 L 2.5 -4.46875 L 2.5 -1.765625 C 2.5 -1.546875 2.5625 -1.382812 2.6875 -1.28125 C 2.8125 -1.175781 2.972656 -1.125 3.171875 -1.125 Z M 3.171875 -1.125 "/></g></g></g><g fill="#7843e6" fill-opacity="1"><g transform="translate(166.167295, 200.975975)"><g><path d="M 3.09375 0.09375 C 1.34375 0.09375 0.46875 -0.863281 0.46875 -2.78125 C 0.46875 -3.738281 0.703125 -4.46875 1.171875 -4.96875 C 1.648438 -5.476562 2.332031 -5.734375 3.21875 -5.734375 C 3.875 -5.734375 4.457031 -5.601562 4.96875 -5.34375 L 4.515625 -4.15625 C 4.273438 -4.25 4.050781 -4.328125 3.84375 -4.390625 C 3.632812 -4.453125 3.425781 -4.484375 3.21875 -4.484375 C 2.425781 -4.484375 2.03125 -3.921875 2.03125 -2.796875 C 2.03125 -1.691406 2.425781 -1.140625 3.21875 -1.140625 C 3.519531 -1.140625 3.796875 -1.175781 4.046875 -1.25 C 4.296875 -1.332031 4.546875 -1.457031 4.796875 -1.625 L 4.796875 -0.3125 C 4.546875 -0.15625 4.296875 -0.0507812 4.046875 0 C 3.796875 0.0625 3.476562 0.09375 3.09375 0.09375 Z M 3.09375 0.09375 "/></g></g></g><g fill="#7843e6" fill-opacity="1"><g transform="translate(171.464427, 200.975975)"><g><path d="M 6 0 L 4.453125 0 L 4.453125 -3.28125 C 4.453125 -4.09375 4.148438 -4.5 3.546875 -4.5 C 3.117188 -4.5 2.8125 -4.351562 2.625 -4.0625 C 2.4375 -3.769531 2.34375 -3.296875 2.34375 -2.640625 L 2.34375 0 L 0.796875 0 L 0.796875 -7.828125 L 2.34375 -7.828125 L 2.34375 -6.234375 C 2.34375 -6.109375 2.328125 -5.816406 2.296875 -5.359375 L 2.265625 -4.90625 L 2.34375 -4.90625 C 2.6875 -5.457031 3.234375 -5.734375 3.984375 -5.734375 C 4.640625 -5.734375 5.140625 -5.550781 5.484375 -5.1875 C 5.828125 -4.832031 6 -4.328125 6 -3.671875 Z M 6 0 "/></g></g></g><g fill="#7843e6" fill-opacity="1"><g transform="translate(178.235497, 200.975975)"><g/></g></g><g fill="#7843e6" fill-opacity="1"><g transform="translate(180.911729, 200.975975)"><g><path d="M 5.421875 0 L 5 -1.96875 L 4.40625 -4.453125 L 4.375 -4.453125 L 3.34375 0 L 1.703125 0 L 0.09375 -5.625 L 1.625 -5.625 L 2.28125 -3.125 C 2.382812 -2.6875 2.488281 -2.070312 2.59375 -1.28125 L 2.625 -1.28125 C 2.632812 -1.539062 2.691406 -1.945312 2.796875 -2.5 L 2.875 -2.921875 L 3.578125 -5.625 L 5.265625 -5.625 L 5.921875 -2.921875 C 5.929688 -2.847656 5.953125 -2.738281 5.984375 -2.59375 C 6.015625 -2.457031 6.039062 -2.304688 6.0625 -2.140625 C 6.09375 -1.972656 6.117188 -1.8125 6.140625 -1.65625 C 6.160156 -1.5 6.171875 -1.375 6.171875 -1.28125 L 6.203125 -1.28125 C 6.234375 -1.53125 6.285156 -1.863281 6.359375 -2.28125 C 6.441406 -2.695312 6.5 -2.976562 6.53125 -3.125 L 7.203125 -5.625 L 8.71875 -5.625 L 7.09375 0 Z M 5.421875 0 "/></g></g></g><g fill="#7843e6" fill-opacity="1"><g transform="translate(189.73022, 200.975975)"><g><path d="M 0.734375 -7.078125 C 0.734375 -7.578125 1.015625 -7.828125 1.578125 -7.828125 C 2.128906 -7.828125 2.40625 -7.578125 2.40625 -7.078125 C 2.40625 -6.835938 2.332031 -6.648438 2.1875 -6.515625 C 2.050781 -6.378906 1.847656 -6.3125 1.578125 -6.3125 C 1.015625 -6.3125 0.734375 -6.566406 0.734375 -7.078125 Z M 2.34375 0 L 0.796875 0 L 0.796875 -5.625 L 2.34375 -5.625 Z M 2.34375 0 "/></g></g></g><g fill="#7843e6" fill-opacity="1"><g transform="translate(192.874292, 200.975975)"><g><path d="M 3.171875 -1.125 C 3.441406 -1.125 3.765625 -1.179688 4.140625 -1.296875 L 4.140625 -0.15625 C 3.753906 0.0078125 3.285156 0.09375 2.734375 0.09375 C 2.117188 0.09375 1.671875 -0.0546875 1.390625 -0.359375 C 1.109375 -0.671875 0.96875 -1.140625 0.96875 -1.765625 L 0.96875 -4.46875 L 0.234375 -4.46875 L 0.234375 -5.125 L 1.078125 -5.625 L 1.515625 -6.8125 L 2.5 -6.8125 L 2.5 -5.625 L 4.078125 -5.625 L 4.078125 -4.46875 L 2.5 -4.46875 L 2.5 -1.765625 C 2.5 -1.546875 2.5625 -1.382812 2.6875 -1.28125 C 2.8125 -1.175781 2.972656 -1.125 3.171875 -1.125 Z M 3.171875 -1.125 "/></g></g></g><g fill="#7843e6" fill-opacity="1"><g transform="translate(197.34642, 200.975975)"><g><path d="M 6 0 L 4.453125 0 L 4.453125 -3.28125 C 4.453125 -4.09375 4.148438 -4.5 3.546875 -4.5 C 3.117188 -4.5 2.8125 -4.351562 2.625 -4.0625 C 2.4375 -3.769531 2.34375 -3.296875 2.34375 -2.640625 L 2.34375 0 L 0.796875 0 L 0.796875 -7.828125 L 2.34375 -7.828125 L 2.34375 -6.234375 C 2.34375 -6.109375 2.328125 -5.816406 2.296875 -5.359375 L 2.265625 -4.90625 L 2.34375 -4.90625 C 2.6875 -5.457031 3.234375 -5.734375 3.984375 -5.734375 C 4.640625 -5.734375 5.140625 -5.550781 5.484375 -5.1875 C 5.828125 -4.832031 6 -4.328125 6 -3.671875 Z M 6 0 "/></g></g></g><g fill="#7843e6" fill-opacity="1"><g transform="translate(204.11749, 200.975975)"><g/></g></g><g fill="#7843e6" fill-opacity="1"><g transform="translate(206.793722, 200.975975)"><g><path d="M 3.890625 0.09375 C 3.234375 0.09375 2.71875 -0.144531 2.34375 -0.625 L 2.25 -0.625 C 2.3125 -0.15625 2.34375 0.117188 2.34375 0.203125 L 2.34375 2.46875 L 0.796875 2.46875 L 0.796875 -5.625 L 2.046875 -5.625 L 2.265625 -4.890625 L 2.34375 -4.890625 C 2.695312 -5.453125 3.226562 -5.734375 3.9375 -5.734375 C 4.59375 -5.734375 5.109375 -5.472656 5.484375 -4.953125 C 5.859375 -4.441406 6.046875 -3.734375 6.046875 -2.828125 C 6.046875 -2.222656 5.957031 -1.695312 5.78125 -1.25 C 5.613281 -0.8125 5.363281 -0.476562 5.03125 -0.25 C 4.707031 -0.0195312 4.328125 0.09375 3.890625 0.09375 Z M 3.4375 -4.5 C 3.0625 -4.5 2.785156 -4.378906 2.609375 -4.140625 C 2.429688 -3.910156 2.34375 -3.53125 2.34375 -3 L 2.34375 -2.828125 C 2.34375 -2.222656 2.429688 -1.789062 2.609375 -1.53125 C 2.785156 -1.269531 3.066406 -1.140625 3.453125 -1.140625 C 4.140625 -1.140625 4.484375 -1.707031 4.484375 -2.84375 C 4.484375 -3.394531 4.398438 -3.804688 4.234375 -4.078125 C 4.066406 -4.359375 3.800781 -4.5 3.4375 -4.5 Z M 3.4375 -4.5 "/></g></g></g><g fill="#7843e6" fill-opacity="1"><g transform="translate(213.313266, 200.975975)"><g><path d="M 4.375 0 L 4.078125 -0.765625 L 4.03125 -0.765625 C 3.78125 -0.441406 3.515625 -0.21875 3.234375 -0.09375 C 2.960938 0.03125 2.609375 0.09375 2.171875 0.09375 C 1.628906 0.09375 1.203125 -0.0546875 0.890625 -0.359375 C 0.585938 -0.671875 0.4375 -1.109375 0.4375 -1.671875 C 0.4375 -2.273438 0.644531 -2.71875 1.0625 -3 C 1.476562 -3.28125 2.109375 -3.4375 2.953125 -3.46875 L 3.921875 -3.5 L 3.921875 -3.75 C 3.921875 -4.3125 3.628906 -4.59375 3.046875 -4.59375 C 2.597656 -4.59375 2.070312 -4.457031 1.46875 -4.1875 L 0.953125 -5.234375 C 1.597656 -5.566406 2.316406 -5.734375 3.109375 -5.734375 C 3.859375 -5.734375 4.429688 -5.566406 4.828125 -5.234375 C 5.234375 -4.910156 5.4375 -4.414062 5.4375 -3.75 L 5.4375 0 Z M 3.921875 -2.609375 L 3.328125 -2.578125 C 2.878906 -2.566406 2.546875 -2.488281 2.328125 -2.34375 C 2.109375 -2.195312 2 -1.972656 2 -1.671875 C 2 -1.234375 2.25 -1.015625 2.75 -1.015625 C 3.101562 -1.015625 3.382812 -1.117188 3.59375 -1.328125 C 3.8125 -1.535156 3.921875 -1.804688 3.921875 -2.140625 Z M 3.921875 -2.609375 "/></g></g></g><g fill="#7843e6" fill-opacity="1"><g transform="translate(219.536012, 200.975975)"><g><path d="M 4.71875 -1.671875 C 4.71875 -1.085938 4.519531 -0.644531 4.125 -0.34375 C 3.726562 -0.0507812 3.128906 0.09375 2.328125 0.09375 C 1.921875 0.09375 1.570312 0.0664062 1.28125 0.015625 C 0.988281 -0.0351562 0.71875 -0.113281 0.46875 -0.21875 L 0.46875 -1.5 C 0.757812 -1.363281 1.082031 -1.25 1.4375 -1.15625 C 1.789062 -1.0625 2.101562 -1.015625 2.375 -1.015625 C 2.9375 -1.015625 3.21875 -1.175781 3.21875 -1.5 C 3.21875 -1.625 3.175781 -1.722656 3.09375 -1.796875 C 3.019531 -1.867188 2.894531 -1.953125 2.71875 -2.046875 C 2.539062 -2.148438 2.300781 -2.265625 2 -2.390625 C 1.5625 -2.566406 1.238281 -2.734375 1.03125 -2.890625 C 0.832031 -3.046875 0.6875 -3.222656 0.59375 -3.421875 C 0.507812 -3.617188 0.46875 -3.863281 0.46875 -4.15625 C 0.46875 -4.65625 0.660156 -5.039062 1.046875 -5.3125 C 1.429688 -5.59375 1.976562 -5.734375 2.6875 -5.734375 C 3.363281 -5.734375 4.023438 -5.582031 4.671875 -5.28125 L 4.203125 -4.171875 C 3.921875 -4.296875 3.65625 -4.394531 3.40625 -4.46875 C 3.164062 -4.550781 2.921875 -4.59375 2.671875 -4.59375 C 2.210938 -4.59375 1.984375 -4.46875 1.984375 -4.21875 C 1.984375 -4.082031 2.054688 -3.960938 2.203125 -3.859375 C 2.347656 -3.765625 2.664062 -3.617188 3.15625 -3.421875 C 3.601562 -3.242188 3.925781 -3.078125 4.125 -2.921875 C 4.332031 -2.765625 4.484375 -2.585938 4.578125 -2.390625 C 4.671875 -2.191406 4.71875 -1.953125 4.71875 -1.671875 Z M 4.71875 -1.671875 "/></g></g></g><g fill="#7843e6" fill-opacity="1"><g transform="translate(224.657074, 200.975975)"><g><path d="M 4.71875 -1.671875 C 4.71875 -1.085938 4.519531 -0.644531 4.125 -0.34375 C 3.726562 -0.0507812 3.128906 0.09375 2.328125 0.09375 C 1.921875 0.09375 1.570312 0.0664062 1.28125 0.015625 C 0.988281 -0.0351562 0.71875 -0.113281 0.46875 -0.21875 L 0.46875 -1.5 C 0.757812 -1.363281 1.082031 -1.25 1.4375 -1.15625 C 1.789062 -1.0625 2.101562 -1.015625 2.375 -1.015625 C 2.9375 -1.015625 3.21875 -1.175781 3.21875 -1.5 C 3.21875 -1.625 3.175781 -1.722656 3.09375 -1.796875 C 3.019531 -1.867188 2.894531 -1.953125 2.71875 -2.046875 C 2.539062 -2.148438 2.300781 -2.265625 2 -2.390625 C 1.5625 -2.566406 1.238281 -2.734375 1.03125 -2.890625 C 0.832031 -3.046875 0.6875 -3.222656 0.59375 -3.421875 C 0.507812 -3.617188 0.46875 -3.863281 0.46875 -4.15625 C 0.46875 -4.65625 0.660156 -5.039062 1.046875 -5.3125 C 1.429688 -5.59375 1.976562 -5.734375 2.6875 -5.734375 C 3.363281 -5.734375 4.023438 -5.582031 4.671875 -5.28125 L 4.203125 -4.171875 C 3.921875 -4.296875 3.65625 -4.394531 3.40625 -4.46875 C 3.164062 -4.550781 2.921875 -4.59375 2.671875 -4.59375 C 2.210938 -4.59375 1.984375 -4.46875 1.984375 -4.21875 C 1.984375 -4.082031 2.054688 -3.960938 2.203125 -3.859375 C 2.347656 -3.765625 2.664062 -3.617188 3.15625 -3.421875 C 3.601562 -3.242188 3.925781 -3.078125 4.125 -2.921875 C 4.332031 -2.765625 4.484375 -2.585938 4.578125 -2.390625 C 4.671875 -2.191406 4.71875 -1.953125 4.71875 -1.671875 Z M 4.71875 -1.671875 "/></g></g></g><g fill="#7843e6" fill-opacity="1"><g transform="translate(229.778135, 200.975975)"><g><path d="M 0.734375 -7.078125 C 0.734375 -7.578125 1.015625 -7.828125 1.578125 -7.828125 C 2.128906 -7.828125 2.40625 -7.578125 2.40625 -7.078125 C 2.40625 -6.835938 2.332031 -6.648438 2.1875 -6.515625 C 2.050781 -6.378906 1.847656 -6.3125 1.578125 -6.3125 C 1.015625 -6.3125 0.734375 -6.566406 0.734375 -7.078125 Z M 2.34375 0 L 0.796875 0 L 0.796875 -5.625 L 2.34375 -5.625 Z M 2.34375 0 "/></g></g></g><g fill="#7843e6" fill-opacity="1"><g transform="translate(232.922208, 200.975975)"><g><path d="M 2.03125 -2.828125 C 2.03125 -2.265625 2.117188 -1.835938 2.296875 -1.546875 C 2.484375 -1.265625 2.78125 -1.125 3.1875 -1.125 C 3.601562 -1.125 3.898438 -1.265625 4.078125 -1.546875 C 4.253906 -1.835938 4.34375 -2.265625 4.34375 -2.828125 C 4.34375 -3.378906 4.25 -3.789062 4.0625 -4.0625 C 3.882812 -4.34375 3.59375 -4.484375 3.1875 -4.484375 C 2.769531 -4.484375 2.472656 -4.34375 2.296875 -4.0625 C 2.117188 -3.789062 2.03125 -3.378906 2.03125 -2.828125 Z M 5.90625 -2.828125 C 5.90625 -1.910156 5.664062 -1.191406 5.1875 -0.671875 C 4.707031 -0.160156 4.035156 0.09375 3.171875 0.09375 C 2.628906 0.09375 2.148438 -0.0195312 1.734375 -0.25 C 1.328125 -0.488281 1.015625 -0.828125 0.796875 -1.265625 C 0.578125 -1.710938 0.46875 -2.234375 0.46875 -2.828125 C 0.46875 -3.742188 0.707031 -4.457031 1.1875 -4.96875 C 1.664062 -5.476562 2.335938 -5.734375 3.203125 -5.734375 C 3.742188 -5.734375 4.21875 -5.613281 4.625 -5.375 C 5.039062 -5.132812 5.359375 -4.796875 5.578125 -4.359375 C 5.796875 -3.921875 5.90625 -3.410156 5.90625 -2.828125 Z M 5.90625 -2.828125 "/></g></g></g><g fill="#7843e6" fill-opacity="1"><g transform="translate(239.300897, 200.975975)"><g><path d="M 6 0 L 4.453125 0 L 4.453125 -3.28125 C 4.453125 -3.6875 4.378906 -3.988281 4.234375 -4.1875 C 4.097656 -4.394531 3.867188 -4.5 3.546875 -4.5 C 3.117188 -4.5 2.8125 -4.351562 2.625 -4.0625 C 2.4375 -3.78125 2.34375 -3.304688 2.34375 -2.640625 L 2.34375 0 L 0.796875 0 L 0.796875 -5.625 L 1.96875 -5.625 L 2.1875 -4.90625 L 2.265625 -4.90625 C 2.441406 -5.175781 2.675781 -5.378906 2.96875 -5.515625 C 3.269531 -5.660156 3.613281 -5.734375 4 -5.734375 C 4.65625 -5.734375 5.148438 -5.554688 5.484375 -5.203125 C 5.828125 -4.847656 6 -4.335938 6 -3.671875 Z M 6 0 "/></g></g></g></svg>